<?xml version="1.0" encoding="UTF-8"?>
<!--Generator: Apple Native CoreSVG 123-->
<!DOCTYPE svg
PUBLIC "-//W3C//DTD SVG 1.1//EN"
       "http://www.w3.org/Graphics/SVG/1.1/DTD/svg11.dtd">
<svg version="1.1" xmlns="http://www.w3.org/2000/svg" xmlns:xlink="http://www.w3.org/1999/xlink" width="3300" height="2200">
 <!--glyph: "uni100397.medium", point size: 100.000000, font version: "Version 15.0d7e11", template writer version: "5"-->
 <g id="Notes">
  <rect height="2200" id="artboard" style="fill:white;opacity:1" width="3300" x="0" y="0"/>
  <line id="" style="fill:none;stroke:black;opacity:1;stroke-width:0.5;" x1="263" x2="3036" y1="292" y2="292"/>
  <text style="stroke:none;fill:black;font-family:-apple-system,&quot;SF Pro Display&quot;,&quot;SF Pro Text&quot;,Helvetica,sans-serif;font-weight:bold;" transform="matrix(1 0 0 1 263 322)">Weight/Scale Variations</text>
  <text style="stroke:none;fill:black;font-family:-apple-system,&quot;SF Pro Display&quot;,&quot;SF Pro Text&quot;,Helvetica,sans-serif;text-anchor:middle;" transform="matrix(1 0 0 1 559.711 322)">Ultralight</text>
  <text style="stroke:none;fill:black;font-family:-apple-system,&quot;SF Pro Display&quot;,&quot;SF Pro Text&quot;,Helvetica,sans-serif;text-anchor:middle;" transform="matrix(1 0 0 1 856.422 322)">Thin</text>
  <text style="stroke:none;fill:black;font-family:-apple-system,&quot;SF Pro Display&quot;,&quot;SF Pro Text&quot;,Helvetica,sans-serif;text-anchor:middle;" transform="matrix(1 0 0 1 1153.13 322)">Light</text>
  <text style="stroke:none;fill:black;font-family:-apple-system,&quot;SF Pro Display&quot;,&quot;SF Pro Text&quot;,Helvetica,sans-serif;text-anchor:middle;" transform="matrix(1 0 0 1 1449.84 322)">Regular</text>
  <text style="stroke:none;fill:black;font-family:-apple-system,&quot;SF Pro Display&quot;,&quot;SF Pro Text&quot;,Helvetica,sans-serif;text-anchor:middle;" transform="matrix(1 0 0 1 1746.56 322)">Medium</text>
  <text style="stroke:none;fill:black;font-family:-apple-system,&quot;SF Pro Display&quot;,&quot;SF Pro Text&quot;,Helvetica,sans-serif;text-anchor:middle;" transform="matrix(1 0 0 1 2043.27 322)">Semibold</text>
  <text style="stroke:none;fill:black;font-family:-apple-system,&quot;SF Pro Display&quot;,&quot;SF Pro Text&quot;,Helvetica,sans-serif;text-anchor:middle;" transform="matrix(1 0 0 1 2339.98 322)">Bold</text>
  <text style="stroke:none;fill:black;font-family:-apple-system,&quot;SF Pro Display&quot;,&quot;SF Pro Text&quot;,Helvetica,sans-serif;text-anchor:middle;" transform="matrix(1 0 0 1 2636.69 322)">Heavy</text>
  <text style="stroke:none;fill:black;font-family:-apple-system,&quot;SF Pro Display&quot;,&quot;SF Pro Text&quot;,Helvetica,sans-serif;text-anchor:middle;" transform="matrix(1 0 0 1 2933.4 322)">Black</text>
  <line id="" style="fill:none;stroke:black;opacity:1;stroke-width:0.5;" x1="263" x2="3036" y1="1903" y2="1903"/>
  <g id="" transform="matrix(1 0 0 1 263 1933)">
   <path d="M 9.24805 0.830078 C 13.5547 0.830078 17.1387 -2.74414 17.1387 -7.05078 C 17.1387 -11.3574 13.5449 -14.9316 9.23828 -14.9316 C 4.94141 -14.9316 1.36719 -11.3574 1.36719 -7.05078 C 1.36719 -2.74414 4.95117 0.830078 9.24805 0.830078 Z M 9.24805 -0.654297 C 5.70312 -0.654297 2.87109 -3.49609 2.87109 -7.05078 C 2.87109 -10.6055 5.69336 -13.4473 9.23828 -13.4473 C 12.793 -13.4473 15.6348 -10.6055 15.6445 -7.05078 C 15.6543 -3.49609 12.8027 -0.654297 9.24805 -0.654297 Z M 9.22852 -3.42773 C 9.69727 -3.42773 9.9707 -3.74023 9.9707 -4.25781 L 9.9707 -6.31836 L 12.1973 -6.31836 C 12.6953 -6.31836 13.0371 -6.57227 13.0371 -7.04102 C 13.0371 -7.51953 12.7148 -7.7832 12.1973 -7.7832 L 9.9707 -7.7832 L 9.9707 -10.0098 C 9.9707 -10.5273 9.69727 -10.8496 9.22852 -10.8496 C 8.75977 -10.8496 8.50586 -10.5078 8.50586 -10.0098 L 8.50586 -7.7832 L 6.29883 -7.7832 C 5.78125 -7.7832 5.44922 -7.51953 5.44922 -7.04102 C 5.44922 -6.57227 5.80078 -6.31836 6.29883 -6.31836 L 8.50586 -6.31836 L 8.50586 -4.25781 C 8.50586 -3.75977 8.75977 -3.42773 9.22852 -3.42773 Z"/>
  </g>
  <g id="" transform="matrix(1 0 0 1 281.506 1933)">
   <path d="M 11.709 2.91016 C 17.1582 2.91016 21.6699 -1.60156 21.6699 -7.05078 C 21.6699 -12.4902 17.1484 -17.0117 11.6992 -17.0117 C 6.25977 -17.0117 1.74805 -12.4902 1.74805 -7.05078 C 1.74805 -1.60156 6.26953 2.91016 11.709 2.91016 Z M 11.709 1.25 C 7.09961 1.25 3.41797 -2.44141 3.41797 -7.05078 C 3.41797 -11.6504 7.08984 -15.3516 11.6992 -15.3516 C 16.3086 -15.3516 20 -11.6504 20.0098 -7.05078 C 20.0195 -2.44141 16.3184 1.25 11.709 1.25 Z M 11.6895 -2.41211 C 12.207 -2.41211 12.5195 -2.77344 12.5195 -3.33984 L 12.5195 -6.23047 L 15.5762 -6.23047 C 16.123 -6.23047 16.5039 -6.51367 16.5039 -7.03125 C 16.5039 -7.55859 16.1426 -7.86133 15.5762 -7.86133 L 12.5195 -7.86133 L 12.5195 -10.9277 C 12.5195 -11.5039 12.207 -11.8555 11.6895 -11.8555 C 11.1719 -11.8555 10.8789 -11.4844 10.8789 -10.9277 L 10.8789 -7.86133 L 7.83203 -7.86133 C 7.26562 -7.86133 6.89453 -7.55859 6.89453 -7.03125 C 6.89453 -6.51367 7.28516 -6.23047 7.83203 -6.23047 L 10.8789 -6.23047 L 10.8789 -3.33984 C 10.8789 -2.79297 11.1719 -2.41211 11.6895 -2.41211 Z"/>
  </g>
  <g id="" transform="matrix(1 0 0 1 304.924 1933)">
   <path d="M 14.9707 5.67383 C 21.9336 5.67383 27.6953 -0.078125 27.6953 -7.04102 C 27.6953 -14.0039 21.9238 -19.7559 14.9609 -19.7559 C 8.00781 -19.7559 2.25586 -14.0039 2.25586 -7.04102 C 2.25586 -0.078125 8.01758 5.67383 14.9707 5.67383 Z M 14.9707 3.85742 C 8.93555 3.85742 4.08203 -1.00586 4.08203 -7.04102 C 4.08203 -13.0762 8.92578 -17.9395 14.9609 -17.9395 C 21.0059 -17.9395 25.8594 -13.0762 25.8691 -7.04102 C 25.8789 -1.00586 21.0156 3.85742 14.9707 3.85742 Z M 14.9512 -1.06445 C 15.5176 -1.06445 15.8691 -1.45508 15.8691 -2.06055 L 15.8691 -6.13281 L 20.1074 -6.13281 C 20.6934 -6.13281 21.1133 -6.46484 21.1133 -7.02148 C 21.1133 -7.59766 20.7227 -7.93945 20.1074 -7.93945 L 15.8691 -7.93945 L 15.8691 -12.1875 C 15.8691 -12.8027 15.5176 -13.1934 14.9512 -13.1934 C 14.3848 -13.1934 14.0625 -12.7832 14.0625 -12.1875 L 14.0625 -7.93945 L 9.83398 -7.93945 C 9.21875 -7.93945 8.80859 -7.59766 8.80859 -7.02148 C 8.80859 -6.46484 9.23828 -6.13281 9.83398 -6.13281 L 14.0625 -6.13281 L 14.0625 -2.06055 C 14.0625 -1.47461 14.3848 -1.06445 14.9512 -1.06445 Z"/>
  </g>
  <text style="stroke:none;fill:black;font-family:-apple-system,&quot;SF Pro Display&quot;,&quot;SF Pro Text&quot;,Helvetica,sans-serif;font-weight:bold;" transform="matrix(1 0 0 1 263 1953)">Design Variations</text>
  <text style="stroke:none;fill:black;font-family:-apple-system,&quot;SF Pro Display&quot;,&quot;SF Pro Text&quot;,Helvetica,sans-serif;" transform="matrix(1 0 0 1 263 1971)">Symbols are supported in up to nine weights and three scales.</text>
  <text style="stroke:none;fill:black;font-family:-apple-system,&quot;SF Pro Display&quot;,&quot;SF Pro Text&quot;,Helvetica,sans-serif;" transform="matrix(1 0 0 1 263 1989)">For optimal layout with text and other symbols, vertically align</text>
  <text style="stroke:none;fill:black;font-family:-apple-system,&quot;SF Pro Display&quot;,&quot;SF Pro Text&quot;,Helvetica,sans-serif;" transform="matrix(1 0 0 1 263 2007)">symbols with the adjacent text.</text>
  <rect height="14" id="" style="fill:#00AEEF;stroke:none;opacity:0.4;" width="3" x="776" y="1919"/>
  <g id="" transform="matrix(1 0 0 1 779 1933)">
   <path d="M 10.5273 0 L 12.373 0 L 7.17773 -14.0918 L 5.43945 -14.0918 L 0.244141 0 L 2.08984 0 L 3.50586 -4.0332 L 9.11133 -4.0332 Z M 6.2793 -11.9531 L 6.33789 -11.9531 L 8.59375 -5.52734 L 4.02344 -5.52734 Z"/>
  </g>
  <rect height="14" id="" style="fill:#00AEEF;stroke:none;opacity:0.4;" width="3" x="791.617" y="1919"/>
  <text style="stroke:none;fill:black;font-family:-apple-system,&quot;SF Pro Display&quot;,&quot;SF Pro Text&quot;,Helvetica,sans-serif;font-weight:bold;" transform="matrix(1 0 0 1 776 1953)">Margins</text>
  <text style="stroke:none;fill:black;font-family:-apple-system,&quot;SF Pro Display&quot;,&quot;SF Pro Text&quot;,Helvetica,sans-serif;" transform="matrix(1 0 0 1 776 1971)">Leading and trailing margins on the left and right side of each symbol</text>
  <text style="stroke:none;fill:black;font-family:-apple-system,&quot;SF Pro Display&quot;,&quot;SF Pro Text&quot;,Helvetica,sans-serif;" transform="matrix(1 0 0 1 776 1989)">can be adjusted by modifying the width of the blue rectangles.</text>
  <text style="stroke:none;fill:black;font-family:-apple-system,&quot;SF Pro Display&quot;,&quot;SF Pro Text&quot;,Helvetica,sans-serif;" transform="matrix(1 0 0 1 776 2007)">Modifications are automatically applied proportionally to all</text>
  <text style="stroke:none;fill:black;font-family:-apple-system,&quot;SF Pro Display&quot;,&quot;SF Pro Text&quot;,Helvetica,sans-serif;" transform="matrix(1 0 0 1 776 2025)">scales and weights.</text>
  <g id="" transform="matrix(1 0 0 1 1289 1933)">
   <path d="M 2.83203 3.11523 L 4.375 4.6582 C 5.22461 5.48828 6.19141 5.41992 7.06055 4.46289 L 17.2754 -6.66016 C 17.7051 -6.36719 18.0957 -6.37695 18.5645 -6.47461 L 19.6094 -6.68945 L 20.3027 -5.99609 L 20.2539 -5.47852 C 20.1855 -4.95117 20.3516 -4.53125 20.8496 -4.0332 L 21.6602 -3.22266 C 22.168 -2.71484 22.8223 -2.68555 23.3008 -3.16406 L 26.5527 -6.41602 C 27.0312 -6.89453 27.0117 -7.54883 26.5039 -8.05664 L 25.6836 -8.87695 C 25.1855 -9.375 24.7754 -9.55078 24.2383 -9.47266 L 23.7109 -9.41406 L 23.0566 -10.0781 L 23.3398 -11.2207 C 23.4863 -11.7871 23.3398 -12.2559 22.7148 -12.8613 L 20.3027 -15.2539 C 16.7578 -18.7793 12.2266 -18.6719 9.11133 -15.5371 C 8.69141 -15.1074 8.64258 -14.5215 8.91602 -14.0918 C 9.15039 -13.7207 9.62891 -13.4961 10.2734 -13.6621 C 11.7871 -14.043 13.3008 -13.9258 14.7852 -12.9199 L 14.1602 -11.3379 C 13.9258 -10.752 13.9453 -10.2734 14.1797 -9.83398 L 3.01758 0.439453 C 2.08008 1.30859 1.97266 2.25586 2.83203 3.11523 Z M 10.6738 -15.1465 C 13.3398 -17.1387 16.6504 -16.8262 19.0527 -14.4141 L 21.6797 -11.8066 C 21.9141 -11.5723 21.9434 -11.3867 21.8848 -11.0938 L 21.5039 -9.53125 L 23.0762 -7.95898 L 24.043 -8.04688 C 24.3262 -8.07617 24.4141 -8.05664 24.6387 -7.83203 L 25.2637 -7.20703 L 22.5098 -4.46289 L 21.8848 -5.07812 C 21.6602 -5.30273 21.6406 -5.40039 21.6699 -5.68359 L 21.7578 -6.64062 L 20.1953 -8.20312 L 18.5742 -7.89062 C 18.291 -7.83203 18.1445 -7.83203 17.9102 -8.07617 L 15.7324 -10.2539 C 15.5078 -10.4883 15.4785 -10.625 15.6055 -10.9473 L 16.5527 -13.2227 C 14.9512 -14.7559 12.8418 -15.6055 10.8008 -14.9512 C 10.7129 -14.9219 10.6445 -14.9414 10.6152 -14.9805 C 10.5859 -15.0293 10.5859 -15.0781 10.6738 -15.1465 Z M 4.10156 2.41211 C 3.61328 1.91406 3.78906 1.61133 4.12109 1.30859 L 15.0781 -8.80859 L 16.3086 -7.57812 L 6.15234 3.34961 C 5.84961 3.68164 5.46875 3.7793 5.06836 3.37891 Z"/>
  </g>
  <text style="stroke:none;fill:black;font-family:-apple-system,&quot;SF Pro Display&quot;,&quot;SF Pro Text&quot;,Helvetica,sans-serif;font-weight:bold;" transform="matrix(1 0 0 1 1289 1953)">Exporting</text>
  <text style="stroke:none;fill:black;font-family:-apple-system,&quot;SF Pro Display&quot;,&quot;SF Pro Text&quot;,Helvetica,sans-serif;" transform="matrix(1 0 0 1 1289 1971)">Symbols should be outlined when exporting to ensure the</text>
  <text style="stroke:none;fill:black;font-family:-apple-system,&quot;SF Pro Display&quot;,&quot;SF Pro Text&quot;,Helvetica,sans-serif;" transform="matrix(1 0 0 1 1289 1989)">design is preserved when submitting to Xcode.</text>
  <text id="template-version" style="stroke:none;fill:black;font-family:-apple-system,&quot;SF Pro Display&quot;,&quot;SF Pro Text&quot;,Helvetica,sans-serif;text-anchor:end;" transform="matrix(1 0 0 1 3036 1933)">Template v.1.0</text>
  <text style="stroke:none;fill:black;font-family:-apple-system,&quot;SF Pro Display&quot;,&quot;SF Pro Text&quot;,Helvetica,sans-serif;text-anchor:end;" transform="matrix(1 0 0 1 3036 1951)">Generated from eyedropper</text>
  <text style="stroke:none;fill:black;font-family:-apple-system,&quot;SF Pro Display&quot;,&quot;SF Pro Text&quot;,Helvetica,sans-serif;text-anchor:end;" transform="matrix(1 0 0 1 3036 1969)">Typeset at 100 points</text>
  <text style="stroke:none;fill:black;font-family:-apple-system,&quot;SF Pro Display&quot;,&quot;SF Pro Text&quot;,Helvetica,sans-serif;" transform="matrix(1 0 0 1 263 726)">Small</text>
  <text style="stroke:none;fill:black;font-family:-apple-system,&quot;SF Pro Display&quot;,&quot;SF Pro Text&quot;,Helvetica,sans-serif;" transform="matrix(1 0 0 1 263 1156)">Medium</text>
  <text style="stroke:none;fill:black;font-family:-apple-system,&quot;SF Pro Display&quot;,&quot;SF Pro Text&quot;,Helvetica,sans-serif;" transform="matrix(1 0 0 1 263 1586)">Large</text>
 </g>
 <g id="Guides">
  <g id="H-reference" style="fill:#27AAE1;stroke:none;" transform="matrix(1 0 0 1 339 696)">
   <path d="M 54.9316 0 L 57.666 0 L 30.5664 -70.459 L 28.0762 -70.459 L 0.976562 0 L 3.66211 0 L 12.9395 -24.4629 L 45.7031 -24.4629 Z M 29.1992 -67.0898 L 29.4434 -67.0898 L 44.8242 -26.709 L 13.8184 -26.709 Z"/>
  </g>
  <line id="Baseline-S" style="fill:none;stroke:#27AAE1;opacity:1;stroke-width:0.577;" x1="263" x2="3036" y1="696" y2="696"/>
  <line id="Capline-S" style="fill:none;stroke:#27AAE1;opacity:1;stroke-width:0.577;" x1="263" x2="3036" y1="625.541" y2="625.541"/>
  <g id="H-reference" style="fill:#27AAE1;stroke:none;" transform="matrix(1 0 0 1 339 1126)">
   <path d="M 54.9316 0 L 57.666 0 L 30.5664 -70.459 L 28.0762 -70.459 L 0.976562 0 L 3.66211 0 L 12.9395 -24.4629 L 45.7031 -24.4629 Z M 29.1992 -67.0898 L 29.4434 -67.0898 L 44.8242 -26.709 L 13.8184 -26.709 Z"/>
  </g>
  <line id="Baseline-M" style="fill:none;stroke:#27AAE1;opacity:1;stroke-width:0.577;" x1="263" x2="3036" y1="1126" y2="1126"/>
  <line id="Capline-M" style="fill:none;stroke:#27AAE1;opacity:1;stroke-width:0.577;" x1="263" x2="3036" y1="1055.54" y2="1055.54"/>
  <g id="H-reference" style="fill:#27AAE1;stroke:none;" transform="matrix(1 0 0 1 339 1556)">
   <path d="M 54.9316 0 L 57.666 0 L 30.5664 -70.459 L 28.0762 -70.459 L 0.976562 0 L 3.66211 0 L 12.9395 -24.4629 L 45.7031 -24.4629 Z M 29.1992 -67.0898 L 29.4434 -67.0898 L 44.8242 -26.709 L 13.8184 -26.709 Z"/>
  </g>
  <line id="Baseline-L" style="fill:none;stroke:#27AAE1;opacity:1;stroke-width:0.577;" x1="263" x2="3036" y1="1556" y2="1556"/>
  <line id="Capline-L" style="fill:none;stroke:#27AAE1;opacity:1;stroke-width:0.577;" x1="263" x2="3036" y1="1485.54" y2="1485.54"/>
  <rect height="119.336" id="left-margin" style="fill:#00AEEF;stroke:none;opacity:0.4;" width="11.2305" x="1387.66" y="1030.79"/>
  <rect height="119.336" id="right-margin" style="fill:#00AEEF;stroke:none;opacity:0.4;" width="11.2192" x="1500.81" y="1030.79"/>
 </g>
 <g id="Symbols">
  <g id="Black-L" transform="matrix(1 0 0 1 2851.59 1556)">
   <path d="M 112.598 -24.5117 L 114.941 -26.9043 C 118.75 -30.7617 118.701 -35.2051 114.795 -39.2578 L 112.695 -41.3574 C 123.975 -51.3672 134.424 -50.7324 142.188 -58.5449 C 153.223 -69.7266 149.609 -85.2051 141.943 -92.9199 C 134.229 -100.781 118.701 -104.15 107.568 -93.2129 C 99.6094 -85.4492 100.391 -75.0977 90.2832 -63.7695 L 88.2812 -65.8691 C 84.4238 -69.9219 79.7363 -69.7266 75.8789 -65.9668 L 73.4863 -63.6719 C 68.8965 -59.2285 69.6777 -55.2246 73.6816 -51.2695 L 76.4648 -48.4863 L 38.2812 -10.3027 C 15.4785 12.5488 26.8555 8.64258 14.4531 26.123 L 21.4844 33.5449 C 38.4766 21.2402 35.7422 33.5938 58.9355 10.5957 L 97.4609 -27.5879 L 100.293 -24.7559 C 104.297 -20.8496 108.057 -19.9707 112.598 -24.5117 Z M 37.2559 12.1094 C 35.498 10.1562 35.8398 8.25195 37.7441 6.29883 L 84.4238 -40.5762 L 89.7461 -35.2539 L 42.9199 11.5234 C 41.1621 13.2812 38.8672 13.916 37.2559 12.1094 Z"/>
  </g>
  <g id="Heavy-L" transform="matrix(1 0 0 1 2555.39 1556)">
   <path d="M 112.598 -26.6113 L 114.746 -28.8574 C 118.359 -32.5684 118.408 -36.8164 114.648 -40.625 L 112.598 -42.7246 C 123.438 -52.3438 133.984 -52.1484 141.455 -59.7168 C 152.051 -70.459 148.584 -85.3516 141.211 -92.8223 C 133.74 -100.342 118.848 -103.613 108.105 -93.1152 C 100.439 -85.6445 100.732 -75.1465 91.0156 -64.2578 L 89.0137 -66.3574 C 85.3516 -70.2148 80.8594 -69.9707 77.1973 -66.4551 L 74.9512 -64.3066 C 70.5566 -60.0586 71.3379 -56.2012 75.0977 -52.4414 L 77.9297 -49.6582 L 37.5488 -9.22852 C 15.5762 12.7441 26.416 9.13086 14.4531 25.9277 L 21.0938 32.959 C 37.4512 21.0938 34.9609 32.9102 57.2754 10.7422 L 97.998 -29.6875 L 100.83 -26.8555 C 104.639 -23.0957 108.301 -22.2656 112.598 -26.6113 Z M 36.2305 12.4512 C 34.2773 10.2539 34.668 8.20312 36.8164 6.05469 L 85.1562 -42.4805 L 91.0156 -36.6211 L 42.4805 11.8652 C 40.5762 13.7695 38.0859 14.4531 36.2305 12.4512 Z"/>
  </g>
  <g id="Bold-L" transform="matrix(1 0 0 1 2259.26 1556)">
   <path d="M 112.598 -28.9551 L 114.551 -31.0547 C 117.92 -34.5215 118.018 -38.623 114.453 -42.1875 L 112.451 -44.1895 C 122.852 -53.4668 133.447 -53.8086 140.576 -61.0352 C 150.732 -71.2891 147.412 -85.5469 140.332 -92.6758 C 133.203 -99.9023 118.994 -102.979 108.691 -92.9688 C 101.318 -85.8398 101.123 -75.2441 91.7969 -64.8438 L 89.8438 -66.8457 C 86.3281 -70.459 82.1777 -70.2637 78.6621 -66.9434 L 76.6113 -64.9902 C 72.4121 -60.9863 73.1445 -57.3242 76.7578 -53.7598 L 79.5898 -50.9766 L 36.7188 -8.05664 C 15.6738 12.9395 25.8789 9.66797 14.4531 25.7324 L 20.6055 32.2754 C 36.2305 20.9473 34.0332 32.0801 55.3711 10.8887 L 98.584 -32.0312 L 101.416 -29.1504 C 105.029 -25.5859 108.545 -24.8047 112.598 -28.9551 Z M 35.1074 12.8418 C 32.9102 10.4004 33.3496 8.1543 35.6934 5.81055 L 85.9375 -44.6289 L 92.4316 -38.1348 L 41.9922 12.2559 C 39.8926 14.3555 37.1582 15.0879 35.1074 12.8418 Z"/>
  </g>
  <g id="Semibold-L" transform="matrix(1 0 0 1 1962.94 1556)">
   <path d="M 112.598 -30.5664 L 114.453 -32.5195 C 117.676 -35.8887 117.773 -39.8438 114.355 -43.2617 L 112.354 -45.2148 C 122.461 -54.1992 133.057 -54.9316 139.99 -61.9141 C 149.805 -71.8262 146.631 -85.6445 139.746 -92.5781 C 132.861 -99.5605 119.092 -102.539 109.082 -92.8711 C 101.953 -85.9863 101.367 -75.3418 92.334 -65.2344 L 90.4297 -67.2363 C 87.0605 -70.6543 83.0566 -70.459 79.6875 -67.2852 L 77.7344 -65.4785 C 73.6816 -61.6211 74.4141 -58.1055 77.8809 -54.6875 L 80.7129 -51.8555 L 36.1328 -7.27539 C 15.7715 13.0859 25.5371 10.0098 14.4531 25.6348 L 20.3125 31.8359 C 35.4492 20.8496 33.3984 31.543 54.1016 10.9863 L 98.9746 -33.6426 L 101.855 -30.7617 C 105.322 -27.3438 108.74 -26.5625 112.598 -30.5664 Z M 34.3262 13.0859 C 31.9824 10.5469 32.4707 8.10547 34.9609 5.61523 L 86.4746 -46.0938 L 93.4082 -39.209 L 41.6016 12.5 C 39.4043 14.6973 36.5723 15.4785 34.3262 13.0859 Z"/>
  </g>
  <g id="Medium-L" transform="matrix(1 0 0 1 1666.53 1556)">
   <path d="M 112.598 -31.7871 L 114.355 -33.6914 C 117.432 -36.9629 117.578 -40.7715 114.258 -44.0918 L 112.305 -45.9961 C 122.119 -54.7852 132.764 -55.7617 139.551 -62.5977 C 149.121 -72.2656 145.996 -85.7422 139.307 -92.5293 C 132.568 -99.3164 119.189 -102.197 109.375 -92.7734 C 102.441 -86.084 101.562 -75.3906 92.7734 -65.5273 L 90.8691 -67.4805 C 87.5488 -70.8496 83.7402 -70.6543 80.4199 -67.5781 L 78.5645 -65.8203 C 74.6094 -62.1094 75.3906 -58.6914 78.7598 -55.3711 L 81.543 -52.5391 L 35.6934 -6.64062 C 15.8203 13.1836 25.293 10.3027 14.4531 25.5371 L 20.0684 31.4941 C 34.8145 20.752 32.9102 31.1035 53.0762 11.0352 L 99.2676 -34.8633 L 102.148 -31.9824 C 105.518 -28.6621 108.887 -27.8809 112.598 -31.7871 Z M 33.7402 13.2812 C 31.2988 10.5957 31.7871 8.05664 34.375 5.46875 L 86.9141 -47.2168 L 94.1406 -39.9902 L 41.3574 12.6953 C 39.0625 14.9902 36.084 15.8203 33.7402 13.2812 Z"/>
  </g>
  <g id="Regular-L" transform="matrix(1 0 0 1 1370.21 1556)">
   <path d="M 112.598 -33.3984 L 114.209 -35.1562 C 117.139 -38.3301 117.334 -41.9922 114.111 -45.1172 L 112.207 -47.0215 C 121.729 -55.5664 132.422 -56.8848 138.965 -63.4766 C 148.193 -72.8516 145.215 -85.8887 138.721 -92.4316 C 132.227 -98.9746 119.287 -101.758 109.766 -92.6758 C 103.076 -86.2305 101.855 -75.4395 93.3105 -65.918 L 91.4062 -67.8223 C 88.2812 -71.0449 84.6191 -70.8496 81.4453 -67.9199 L 79.6875 -66.3086 C 75.8789 -62.7441 76.6602 -59.4727 79.834 -56.25 L 82.7148 -53.418 L 35.1074 -5.85938 C 15.918 13.3301 24.9023 10.6445 14.4531 25.3906 L 19.7266 31.0059 C 34.0332 20.6543 32.2754 30.5664 51.8066 11.1328 L 99.6582 -36.4258 L 102.539 -33.5449 C 105.762 -30.3711 109.033 -29.5898 112.598 -33.3984 Z M 32.959 13.5254 C 30.3711 10.6934 30.9082 8.05664 33.6426 5.27344 L 87.4512 -48.6816 L 95.0684 -41.0645 L 41.0156 12.9395 C 38.5742 15.3809 35.4492 16.2109 32.959 13.5254 Z"/>
  </g>
  <g id="Light-L" transform="matrix(1 0 0 1 1074.3 1556)">
   <path d="M 111.67 -33.9355 L 113.086 -35.4492 C 115.869 -38.4766 116.016 -41.9922 112.988 -45.0195 L 111.035 -46.9727 C 120.361 -55.3711 131.055 -56.8359 137.5 -63.3301 C 146.533 -72.5098 143.604 -85.3516 137.256 -91.748 C 130.859 -98.1445 118.164 -100.879 108.838 -91.9922 C 102.246 -85.6445 100.879 -74.9023 92.4805 -65.5762 L 90.5273 -67.5293 C 87.5 -70.5078 83.9844 -70.3125 80.957 -67.5781 L 79.3945 -66.1621 C 75.7324 -62.8418 76.5137 -59.6191 79.5898 -56.5918 L 82.666 -53.5156 L 35.1074 -5.95703 C 16.2598 12.8906 24.7559 10.6445 14.4531 25.0977 L 19.2383 30.2246 C 33.252 20.0195 31.9336 29.4434 51.0742 10.4004 L 98.9258 -37.207 L 102.051 -34.082 C 105.127 -31.0059 108.35 -30.2246 111.67 -33.9355 Z M 31.7871 13.8672 C 28.7598 10.5957 29.3945 7.56836 32.4707 4.44336 L 86.4746 -49.6582 L 95.2148 -40.9668 L 40.8691 13.2812 C 38.1836 15.9668 34.7168 16.9922 31.7871 13.8672 Z"/>
  </g>
  <g id="Thin-L" transform="matrix(1 0 0 1 778.639 1556)">
   <path d="M 110.449 -34.6191 L 111.572 -35.8887 C 114.16 -38.7207 114.307 -42.041 111.523 -44.873 L 109.521 -46.9238 C 118.604 -55.127 129.297 -56.8359 135.498 -63.1348 C 144.336 -72.0703 141.504 -84.6191 135.303 -90.8203 C 129.053 -97.0703 116.65 -99.7559 107.568 -91.0645 C 101.172 -84.9121 99.5605 -74.1699 91.4062 -65.0879 L 89.3066 -67.0898 C 86.4746 -69.873 83.2031 -69.6289 80.3223 -67.1387 L 79.0527 -66.0156 C 75.5371 -62.9883 76.3184 -59.8145 79.1992 -56.9824 L 82.5684 -53.5645 L 35.1074 -6.10352 C 16.748 12.2559 24.5117 10.5957 14.4531 24.6582 L 18.5547 29.1992 C 32.2266 19.2383 31.3965 27.9297 50.0977 9.375 L 97.9492 -38.2324 L 101.416 -34.7656 C 104.248 -31.8848 107.422 -31.1035 110.449 -34.6191 Z M 30.2246 14.3066 C 26.6602 10.4492 27.3926 6.88477 30.957 3.32031 L 85.2051 -50.9766 L 95.3613 -40.8203 L 40.7227 13.6719 C 37.5977 16.7969 33.6914 18.0176 30.2246 14.3066 Z"/>
  </g>
  <g id="Ultralight-L" transform="matrix(1 0 0 1 482.465 1556)">
   <path d="M 109.863 -34.9609 L 110.84 -36.084 C 113.281 -38.8672 113.428 -42.041 110.742 -44.8242 L 108.74 -46.9238 C 117.676 -54.9805 128.369 -56.8359 134.521 -63.0371 C 143.213 -71.8262 140.43 -84.2285 134.277 -90.3809 C 128.125 -96.5332 115.918 -99.1699 106.934 -90.625 C 100.635 -84.5703 98.877 -73.7793 90.8203 -64.8438 L 88.7207 -66.8457 C 85.9375 -69.5312 82.7637 -69.2871 79.9805 -66.9434 L 78.8574 -65.9668 C 75.4395 -63.0371 76.2695 -59.9121 79.0039 -57.1777 L 82.5684 -53.6133 L 35.1074 -6.20117 C 16.9922 11.9629 24.3652 10.5469 14.4531 24.4629 L 18.2129 28.6621 C 31.7383 18.7988 31.1523 27.1484 49.6094 8.88672 L 97.4121 -38.7695 L 101.074 -35.1074 C 103.809 -32.373 106.934 -31.543 109.863 -34.9609 Z M 29.4434 14.5508 C 25.5859 10.3516 26.3184 6.54297 30.1758 2.73438 L 84.5215 -51.6113 L 95.4102 -40.7715 L 40.625 13.8672 C 37.3047 17.1875 33.2031 18.5547 29.4434 14.5508 Z"/>
  </g>
  <g id="Black-M" transform="matrix(1 0 0 1 2869.7 1126)">
   <path d="M 86.7676 -24.4141 L 88.7207 -26.3184 C 91.8457 -29.4434 91.7969 -33.1055 88.623 -36.4258 L 86.9141 -38.1836 C 96.0938 -46.2891 104.15 -45.2637 110.449 -51.6602 C 119.482 -60.791 116.553 -73.4375 110.303 -79.7363 C 103.955 -86.1816 91.2598 -88.9648 82.1777 -79.9805 C 75.6836 -73.584 76.8555 -65.7227 68.5547 -56.4453 L 66.9434 -58.2031 C 63.8184 -61.5234 59.9609 -61.3281 56.7871 -58.252 L 54.8828 -56.3965 C 51.123 -52.7344 51.7578 -49.4141 54.9805 -46.2402 L 57.2754 -43.9941 L 30.7129 -17.3828 C 12.0605 1.26953 21.3867 -1.9043 11.2305 12.3535 L 16.9922 18.4082 C 30.9082 8.39844 28.6133 18.5059 47.6074 -0.292969 L 74.4629 -26.9043 L 76.7578 -24.5605 C 80.0293 -21.3867 83.1055 -20.7031 86.7676 -24.4141 Z M 29.5898 1.17188 C 28.3203 -0.292969 28.5645 -1.75781 29.9805 -3.17383 L 64.0137 -37.3047 L 67.9688 -33.3496 L 33.8379 0.732422 C 32.5195 2.05078 30.8594 2.53906 29.5898 1.17188 Z"/>
  </g>
  <g id="Heavy-M" transform="matrix(1 0 0 1 2573.36 1126)">
   <path d="M 87.0117 -26.5625 L 88.8184 -28.3691 C 91.7969 -31.3477 91.748 -34.8145 88.7207 -37.9395 L 87.1094 -39.6484 C 95.8984 -47.4121 103.955 -46.875 110.01 -52.9785 C 118.604 -61.6699 115.82 -73.7305 109.814 -79.7852 C 103.809 -85.9375 91.6992 -88.5742 83.0078 -80.0293 C 76.7578 -73.9258 77.4902 -65.918 69.5801 -57.0801 L 68.0176 -58.7891 C 64.9902 -61.9141 61.377 -61.7676 58.3496 -58.8379 L 56.543 -57.0801 C 52.9785 -53.6133 53.5645 -50.4883 56.6895 -47.4609 L 58.8867 -45.2637 L 29.8828 -16.2109 C 12.0605 1.61133 20.8984 -1.36719 11.2305 12.2559 L 16.6504 17.9688 C 29.9316 8.39844 27.832 18.0176 45.9473 0.0488281 L 75.1953 -29.0039 L 77.4902 -26.709 C 80.5664 -23.6816 83.5449 -22.998 87.0117 -26.5625 Z M 28.8086 1.46484 C 27.3926 -0.146484 27.6855 -1.66016 29.248 -3.22266 L 65.0391 -39.1602 L 69.2871 -34.8633 L 33.3984 1.02539 C 31.9824 2.44141 30.1758 2.92969 28.8086 1.46484 Z"/>
  </g>
  <g id="Bold-M" transform="matrix(1 0 0 1 2277.04 1126)">
   <path d="M 87.3047 -28.9551 L 88.9648 -30.6641 C 91.6992 -33.4961 91.748 -36.7676 88.8672 -39.6973 L 87.3047 -41.2598 C 95.6055 -48.6816 103.76 -48.6328 109.521 -54.4434 C 117.676 -62.6465 114.99 -74.1211 109.326 -79.834 C 103.613 -85.6445 92.1875 -88.1348 83.9355 -80.0781 C 78.0273 -74.3164 78.1738 -66.2109 70.7031 -57.8613 L 69.1895 -59.4238 C 66.3574 -62.4023 62.9395 -62.207 60.1074 -59.5215 L 58.3984 -57.8613 C 55.0293 -54.6387 55.6152 -51.709 58.5449 -48.7793 L 60.6934 -46.6309 L 28.9551 -14.8926 C 12.1094 1.95312 20.4102 -0.78125 11.2305 12.1582 L 16.3086 17.4805 C 28.8574 8.39844 26.9531 17.4316 44.0918 0.439453 L 76.0742 -31.2988 L 78.2715 -29.1016 C 81.2012 -26.2207 84.0332 -25.5859 87.3047 -28.9551 Z M 27.9297 1.75781 C 26.3672 0.0488281 26.709 -1.5625 28.3691 -3.27148 L 66.1621 -41.2109 L 70.8008 -36.5723 L 32.8613 1.31836 C 31.3477 2.83203 29.3945 3.36914 27.9297 1.75781 Z"/>
  </g>
  <g id="Semibold-M" transform="matrix(1 0 0 1 1980.6 1126)">
   <path d="M 87.4512 -30.6152 L 89.0625 -32.2266 C 91.6504 -34.9609 91.6992 -38.0859 88.9648 -40.8691 L 87.4023 -42.4316 C 95.459 -49.5605 103.662 -49.8535 109.18 -55.4199 C 116.992 -63.3789 114.453 -74.3652 108.984 -79.8828 C 103.516 -85.4492 92.5293 -87.793 84.5215 -80.0781 C 78.8574 -74.6094 78.6621 -66.4062 71.4844 -58.3496 L 69.9707 -59.9121 C 67.2852 -62.6953 64.0137 -62.5488 61.3281 -59.9609 L 59.7168 -58.3984 C 56.4453 -55.3223 57.0312 -52.4902 59.8145 -49.7559 L 61.9629 -47.6074 L 28.3203 -13.9648 C 12.1094 2.24609 20.0684 -0.341797 11.2305 12.0605 L 16.0645 17.1875 C 28.125 8.39844 26.3672 17.041 42.8223 0.683594 L 76.6602 -32.9102 L 78.8574 -30.7617 C 81.6406 -27.9785 84.375 -27.3926 87.4512 -30.6152 Z M 27.3438 2.00195 C 25.6836 0.195312 26.0254 -1.51367 27.7832 -3.27148 L 66.9434 -42.627 L 71.8262 -37.7441 L 32.5195 1.5625 C 30.9082 3.125 28.8574 3.66211 27.3438 2.00195 Z"/>
  </g>
  <g id="Medium-M" transform="matrix(1 0 0 1 1684.1 1126)">
   <path d="M 87.5977 -31.8848 L 89.1113 -33.4473 C 91.6016 -36.084 91.6992 -39.1113 89.0137 -41.7969 L 87.5488 -43.2617 C 95.3125 -50.2441 103.564 -50.7812 108.887 -56.2012 C 116.504 -63.8672 114.014 -74.5605 108.691 -79.9316 C 103.418 -85.3027 92.7734 -87.5977 85.0098 -80.127 C 79.541 -74.8047 79.0039 -66.5039 72.0703 -58.7402 L 70.6055 -60.2539 C 67.9688 -62.9395 64.8438 -62.793 62.207 -60.3027 L 60.6934 -58.8379 C 57.5195 -55.8594 58.1055 -53.125 60.791 -50.4395 L 62.8906 -48.3398 L 27.8809 -13.2812 C 12.1582 2.44141 19.7754 -0.0488281 11.2305 12.0117 L 15.8691 16.8945 C 27.5391 8.39844 25.8789 16.748 41.8457 0.878906 L 77.0996 -34.1309 L 79.248 -32.0312 C 81.9336 -29.3457 84.6191 -28.7598 87.5977 -31.8848 Z M 26.8555 2.14844 C 25.1465 0.292969 25.4883 -1.46484 27.3438 -3.32031 L 67.5781 -43.7012 L 72.6074 -38.623 L 32.2266 1.70898 C 30.6152 3.36914 28.4668 3.90625 26.8555 2.14844 Z"/>
  </g>
  <g id="Regular-M" transform="matrix(1 0 0 1 1387.66 1126)">
   <path d="M 87.793 -33.4961 L 89.1602 -35.0098 C 91.5527 -37.5 91.6992 -40.4297 89.1113 -42.9688 L 87.6465 -44.3848 C 95.1172 -51.0742 103.418 -52.002 108.545 -57.2266 C 115.82 -64.5508 113.477 -74.8047 108.35 -79.9316 C 103.271 -85.1074 93.1152 -87.3047 85.6445 -80.127 C 80.3711 -75.0488 79.4922 -66.6992 72.8027 -59.2285 L 71.3867 -60.6934 C 68.8965 -63.2324 65.918 -63.1348 63.4277 -60.7422 L 61.9629 -59.375 C 58.9355 -56.4941 59.5215 -53.9551 62.0605 -51.3672 L 64.1602 -49.3164 L 27.2461 -12.4023 C 12.1582 2.68555 19.4336 0.341797 11.2305 11.9141 L 15.625 16.5527 C 26.8066 8.39844 25.293 16.4062 40.625 1.12305 L 77.6855 -35.7422 L 79.7852 -33.6426 C 82.373 -31.0547 84.9609 -30.5176 87.793 -33.4961 Z M 26.2695 2.39258 C 24.4629 0.439453 24.8535 -1.41602 26.7578 -3.36914 L 68.3594 -45.1172 L 73.6328 -39.7949 L 31.8848 1.9043 C 30.1758 3.66211 27.9297 4.19922 26.2695 2.39258 Z"/>
  </g>
  <g id="Light-M" transform="matrix(1 0 0 1 1091.66 1126)">
   <path d="M 86.9629 -33.9844 L 88.1836 -35.2539 C 90.3809 -37.6953 90.5273 -40.4785 88.0859 -42.8711 L 86.6211 -44.3848 C 93.8965 -50.9277 102.197 -52.002 107.227 -57.0801 C 114.355 -64.2578 112.061 -74.3164 107.031 -79.3457 C 102.051 -84.375 92.0898 -86.5234 84.8145 -79.541 C 79.6387 -74.5605 78.6133 -66.2109 72.0703 -58.8867 L 70.6055 -60.4004 C 68.1641 -62.793 65.3809 -62.6465 62.9883 -60.4492 L 61.7188 -59.2773 C 58.7891 -56.5918 59.375 -54.0527 61.8164 -51.6113 L 64.1113 -49.3652 L 27.2461 -12.5 C 12.5 2.24609 19.2871 0.341797 11.2305 11.6699 L 15.1367 15.8691 C 26.123 7.86133 24.9512 15.3809 39.9414 0.439453 L 77.0508 -36.4258 L 79.3457 -34.1309 C 81.7871 -31.6895 84.3262 -31.0547 86.9629 -33.9844 Z M 25.1953 2.68555 C 23.0469 0.341797 23.4863 -1.85547 25.7324 -4.10156 L 67.4805 -45.9961 L 73.7305 -39.6973 L 31.7871 2.19727 C 29.7852 4.19922 27.2461 4.88281 25.1953 2.68555 Z"/>
  </g>
  <g id="Thin-M" transform="matrix(1 0 0 1 795.875 1126)">
   <path d="M 85.8887 -34.6191 L 86.8164 -35.6445 C 88.8672 -37.8906 88.9648 -40.4785 86.7676 -42.7246 L 85.2539 -44.3359 C 92.334 -50.6836 100.586 -51.9531 105.469 -56.8848 C 112.354 -63.8672 110.156 -73.6328 105.273 -78.5156 C 100.439 -83.3984 90.7715 -85.498 83.6914 -78.7109 C 78.6621 -73.877 77.4902 -65.5273 71.0938 -58.4473 L 69.5312 -60.0098 C 67.2363 -62.207 64.6484 -62.0605 62.4023 -60.0586 L 61.377 -59.1309 C 58.5938 -56.6895 59.2285 -54.248 61.4746 -52.002 L 64.0625 -49.4141 L 27.2461 -12.6465 C 12.8906 1.70898 19.043 0.292969 11.2305 11.2793 L 14.5508 14.9414 C 25.2441 7.12891 24.4629 14.0625 39.0625 -0.439453 L 76.123 -37.3535 L 78.7598 -34.7168 C 81.0059 -32.4707 83.4961 -31.8359 85.8887 -34.6191 Z M 23.7793 3.07617 C 21.1426 0.195312 21.6797 -2.44141 24.3652 -5.12695 L 66.3574 -47.168 L 73.877 -39.5996 L 31.6406 2.58789 C 29.2969 4.93164 26.3672 5.81055 23.7793 3.07617 Z"/>
  </g>
  <g id="Ultralight-M" transform="matrix(1 0 0 1 499.653 1126)">
   <path d="M 85.3516 -34.9121 L 86.1328 -35.8398 C 88.0859 -37.9883 88.1836 -40.4785 86.084 -42.6758 L 84.5215 -44.2871 C 91.5039 -50.5859 99.8047 -51.9531 104.59 -56.8359 C 111.377 -63.6719 109.18 -73.291 104.395 -78.125 C 99.6094 -82.9102 90.0879 -84.9609 83.1055 -78.2715 C 78.1738 -73.584 76.8555 -65.2344 70.6055 -58.252 L 68.9453 -59.8145 C 66.7969 -61.9141 64.3066 -61.7188 62.1094 -59.8633 L 61.1816 -59.082 C 58.5449 -56.7871 59.1309 -54.3457 61.3281 -52.1484 L 64.0137 -49.4629 L 27.2461 -12.6953 C 13.1348 1.41602 18.9453 0.244141 11.2305 11.084 L 14.2578 14.4531 C 24.7559 6.78711 24.2188 13.3789 38.623 -0.878906 L 75.6836 -37.793 L 78.4668 -35.0586 C 80.6152 -32.8613 83.0566 -32.2266 85.3516 -34.9121 Z M 23.0957 3.27148 C 20.166 0.146484 20.752 -2.73438 23.6328 -5.61523 L 65.7715 -47.7539 L 73.9746 -39.5508 L 31.543 2.7832 C 29.0527 5.27344 25.8789 6.29883 23.0957 3.27148 Z"/>
  </g>
  <g id="Black-S" transform="matrix(1 0 0 1 2883.52 696)">
   <path d="M 68.0176 -26.9043 L 69.5312 -28.418 C 71.9727 -30.8594 71.9238 -33.6914 69.4336 -36.2793 L 68.1152 -37.6465 C 75.293 -43.9941 81.5918 -43.2129 86.5234 -48.1934 C 93.5547 -55.3223 91.2598 -65.1855 86.377 -70.1172 C 81.4453 -75.1465 71.5332 -77.2949 64.4531 -70.3125 C 59.375 -65.332 60.2539 -59.1309 53.8086 -51.9043 L 52.5391 -53.2715 C 50.0977 -55.8594 47.0703 -55.7129 44.6289 -53.3203 L 43.1152 -51.8555 C 40.1855 -49.0234 40.6738 -46.4355 43.2129 -43.9453 L 44.9707 -42.1875 L 23.9746 -21.1426 C 9.42383 -6.5918 16.6992 -9.08203 8.78906 2.05078 L 13.2812 6.78711 C 24.1211 -1.02539 22.3633 6.83594 37.1582 -7.8125 L 58.3984 -28.8574 L 60.2051 -27.0508 C 62.7441 -24.5605 65.1367 -24.0234 68.0176 -26.9043 Z M 23.1445 -6.68945 C 22.1191 -7.86133 22.3145 -8.98438 23.4375 -10.1074 L 50.1953 -36.9629 L 53.3691 -33.8867 L 26.4648 -7.03125 C 25.4395 -6.00586 24.1211 -5.61523 23.1445 -6.68945 Z"/>
  </g>
  <g id="Heavy-S" transform="matrix(1 0 0 1 2587.01 696)">
   <path d="M 68.3105 -28.5156 L 69.7266 -29.9316 C 72.0215 -32.2754 72.0215 -35.0098 69.6289 -37.4512 L 68.3594 -38.7695 C 75.2441 -44.873 81.5918 -44.4336 86.3281 -49.2188 C 93.0664 -56.0547 90.8691 -65.4785 86.1816 -70.2148 C 81.4453 -75.0488 71.9727 -77.0996 65.1855 -70.4102 C 60.3027 -65.625 60.8398 -59.375 54.6387 -52.4414 L 53.418 -53.7598 C 51.0742 -56.2012 48.1934 -56.1035 45.8496 -53.8086 L 44.4336 -52.3926 C 41.6016 -49.707 42.0898 -47.2168 44.5312 -44.8242 L 46.2402 -43.1641 L 23.3398 -20.2148 C 9.42383 -6.29883 16.3574 -8.69141 8.78906 2.00195 L 13.0859 6.54297 C 23.4863 -0.976562 21.7773 6.5918 35.9863 -7.4707 L 59.0332 -30.3711 L 60.791 -28.6133 C 63.2324 -26.2207 65.5273 -25.7324 68.3105 -28.5156 Z M 22.6562 -6.49414 C 21.582 -7.71484 21.7773 -8.88672 22.9492 -10.0586 L 51.123 -38.2812 L 54.3457 -35.0586 L 26.123 -6.83594 C 25.0488 -5.76172 23.6816 -5.37109 22.6562 -6.49414 Z"/>
  </g>
  <g id="Bold-S" transform="matrix(1 0 0 1 2290.51 696)">
   <path d="M 68.6035 -30.2734 L 69.9219 -31.6406 C 72.1191 -33.8867 72.168 -36.5234 69.873 -38.8184 L 68.6523 -40.0391 C 75.1953 -45.8496 81.5918 -45.8008 86.084 -50.3418 C 92.5293 -56.8359 90.4297 -65.8203 85.9375 -70.3613 C 81.4941 -74.9023 72.4609 -76.8555 65.9668 -70.5078 C 61.3281 -66.0156 61.4746 -59.6191 55.6152 -53.0273 L 54.4434 -54.2969 C 52.1973 -56.6406 49.5117 -56.4941 47.2656 -54.3457 L 45.8984 -53.0273 C 43.2129 -50.4395 43.6523 -48.1445 45.9961 -45.8496 L 47.6074 -44.1895 L 22.6562 -19.2383 C 9.42383 -5.95703 16.0156 -8.20312 8.78906 1.95312 L 12.8418 6.25 C 22.7051 -0.878906 21.1426 6.25 34.6191 -7.12891 L 59.7656 -32.0801 L 61.4746 -30.4199 C 63.7695 -28.125 66.0156 -27.6367 68.6035 -30.2734 Z M 22.1191 -6.29883 C 20.9961 -7.56836 21.1914 -8.74023 22.4609 -10.0098 L 52.0996 -39.7461 L 55.4688 -36.377 L 25.7324 -6.64062 C 24.6094 -5.51758 23.1445 -5.12695 22.1191 -6.29883 Z"/>
  </g>
  <g id="Semibold-S" transform="matrix(1 0 0 1 1993.95 696)">
   <path d="M 68.7988 -31.4941 L 70.0684 -32.8613 C 72.168 -35.0098 72.2168 -37.5 70.0195 -39.7461 L 68.8477 -40.918 C 75.1465 -46.5332 81.5918 -46.7285 85.9375 -51.123 C 92.1387 -57.373 90.0879 -66.0645 85.791 -70.4102 C 81.4941 -74.8047 72.8027 -76.6602 66.5039 -70.5566 C 62.0605 -66.2598 61.9141 -59.8145 56.25 -53.4668 L 55.127 -54.6875 C 52.9785 -56.9336 50.3906 -56.7871 48.1934 -54.7363 L 46.875 -53.4668 C 44.2871 -50.9766 44.7754 -48.7305 46.9727 -46.5332 L 48.584 -44.9219 L 22.168 -18.5059 C 9.375 -5.71289 15.7715 -7.91016 8.78906 1.9043 L 12.6953 6.05469 C 22.2168 -0.830078 20.752 6.05469 33.7402 -6.83594 L 60.3027 -33.252 L 61.9141 -31.6406 C 64.1602 -29.4434 66.3086 -28.9551 68.7988 -31.4941 Z M 21.7285 -6.15234 C 20.5566 -7.42188 20.8008 -8.64258 22.1191 -9.96094 L 52.7832 -40.7715 L 56.25 -37.2559 L 25.4883 -6.49414 C 24.3164 -5.37109 22.8027 -4.98047 21.7285 -6.15234 Z"/>
  </g>
  <g id="Medium-S" transform="matrix(1 0 0 1 1697.34 696)">
   <path d="M 68.9453 -32.4707 L 70.2148 -33.7402 C 72.2168 -35.8398 72.3145 -38.2812 70.166 -40.4297 L 68.9941 -41.5527 C 75.1465 -47.0703 81.5918 -47.4609 85.8398 -51.7578 C 91.8457 -57.8125 89.8926 -66.2598 85.6934 -70.459 C 81.4941 -74.7559 73.0957 -76.5625 66.9434 -70.6543 C 62.5977 -66.4062 62.2559 -59.9609 56.7383 -53.7598 L 55.6152 -54.9316 C 53.5156 -57.1289 51.0254 -57.0312 48.9258 -54.9805 L 47.6562 -53.7598 C 45.1172 -51.3672 45.6055 -49.2188 47.7539 -47.0703 L 49.3164 -45.5078 L 21.8262 -17.9688 C 9.375 -5.56641 15.5762 -7.66602 8.78906 1.9043 L 12.5977 5.9082 C 21.8262 -0.830078 20.4102 5.9082 33.0078 -6.64062 L 60.6934 -34.1309 L 62.2559 -32.5684 C 64.4531 -30.4199 66.5527 -29.9316 68.9453 -32.4707 Z M 21.4355 -6.05469 C 20.2637 -7.37305 20.5078 -8.59375 21.8262 -9.91211 L 53.2715 -41.5527 L 56.8848 -37.9395 L 25.293 -6.39648 C 24.1211 -5.22461 22.5586 -4.83398 21.4355 -6.05469 Z"/>
  </g>
  <g id="Regular-S" transform="matrix(1 0 0 1 1400.77 696)">
   <path d="M 69.1406 -33.6426 L 70.3613 -34.9121 C 72.2656 -36.9629 72.3633 -39.3066 70.3125 -41.3574 L 69.1895 -42.4316 C 75.0977 -47.7051 81.5918 -48.3887 85.6934 -52.5391 C 91.4551 -58.3496 89.5508 -66.4551 85.5469 -70.5566 C 81.4941 -74.6582 73.4375 -76.416 67.4805 -70.7031 C 63.3301 -66.6504 62.6953 -60.1074 57.4219 -54.1992 L 56.2988 -55.3223 C 54.2969 -57.4219 51.9043 -57.3242 49.9023 -55.3711 L 48.6328 -54.1992 C 46.2402 -51.8555 46.6797 -49.8047 48.7305 -47.7539 L 50.2441 -46.2402 L 21.3379 -17.2852 C 9.375 -5.32227 15.2832 -7.32422 8.78906 1.85547 L 12.4512 5.71289 C 21.3379 -0.78125 19.9707 5.71289 32.1289 -6.39648 L 61.1816 -35.3027 L 62.7441 -33.7402 C 64.7949 -31.6895 66.8457 -31.25 69.1406 -33.6426 Z M 21.0938 -5.9082 C 19.8242 -7.22656 20.1172 -8.49609 21.4844 -9.86328 L 53.9551 -42.5293 L 57.6172 -38.8672 L 25.0488 -6.25 C 23.8281 -5.0293 22.2168 -4.6875 21.0938 -5.9082 Z"/>
  </g>
  <g id="Light-S" transform="matrix(1 0 0 1 1104.7 696)">
   <path d="M 68.457 -34.082 L 69.4336 -35.1562 C 71.2402 -37.1094 71.3379 -39.3066 69.3848 -41.2598 L 68.2617 -42.3828 C 74.0234 -47.5586 80.5176 -48.3887 84.5215 -52.3926 C 90.1367 -58.1055 88.3301 -66.0156 84.375 -70.0195 C 80.4199 -73.9746 72.5098 -75.6836 66.748 -70.166 C 62.6465 -66.2109 61.9141 -59.668 56.7383 -53.9062 L 55.6152 -55.0781 C 53.6621 -56.9824 51.416 -56.8848 49.5117 -55.127 L 48.4375 -54.1016 C 46.0938 -51.9531 46.582 -49.9512 48.5352 -47.998 L 50.2441 -46.2891 L 21.3379 -17.3828 C 9.66797 -5.71289 15.1367 -7.37305 8.78906 1.61133 L 12.0117 5.07812 C 20.752 -1.26953 19.6777 4.78516 31.543 -6.98242 L 60.5957 -35.8887 L 62.3047 -34.1797 C 64.3066 -32.2266 66.3086 -31.7383 68.457 -34.082 Z M 20.1172 -5.66406 C 18.6035 -7.32422 18.8965 -8.93555 20.5566 -10.5469 L 53.1738 -43.3105 L 57.7148 -38.7695 L 24.9512 -6.00586 C 23.4863 -4.54102 21.6309 -4.05273 20.1172 -5.66406 Z"/>
  </g>
  <g id="Thin-S" transform="matrix(1 0 0 1 808.839 696)">
   <path d="M 67.4805 -34.6191 L 68.2617 -35.498 C 69.9219 -37.2559 70.0195 -39.3555 68.2129 -41.1621 L 67.041 -42.3828 C 72.6074 -47.4121 79.1016 -48.3398 82.959 -52.2461 C 88.4277 -57.7637 86.6699 -65.4785 82.8125 -69.2871 C 79.0039 -73.1445 71.3379 -74.8047 65.7715 -69.4336 C 61.8164 -65.6738 60.8887 -59.1309 55.8594 -53.5156 L 54.6387 -54.7363 C 52.8809 -56.4941 50.7812 -56.3477 49.0234 -54.7852 L 48.1445 -54.0039 C 45.9473 -52.0508 46.4355 -50.0977 48.2422 -48.291 L 50.1953 -46.3379 L 21.3379 -17.4805 C 10.0098 -6.20117 14.9902 -7.37305 8.78906 1.26953 L 11.5234 4.24805 C 19.9219 -1.9043 19.2383 3.61328 30.7617 -7.8125 L 59.8145 -36.7188 L 61.8164 -34.7168 C 63.623 -32.9102 65.5762 -32.4219 67.4805 -34.6191 Z M 18.8965 -5.32227 C 16.9434 -7.42188 17.334 -9.42383 19.3359 -11.4258 L 52.1973 -44.3359 L 57.8613 -38.6719 L 24.8047 -5.66406 C 23.0469 -3.90625 20.8008 -3.27148 18.8965 -5.32227 Z"/>
  </g>
  <g id="Ultralight-S" transform="matrix(1 0 0 1 512.543 696)">
   <path d="M 66.9922 -34.9121 L 67.6758 -35.6445 C 69.1895 -37.4023 69.2871 -39.3555 67.627 -41.0645 L 66.4062 -42.334 C 71.875 -47.2656 78.3691 -48.3398 82.1777 -52.1484 C 87.5 -57.5684 85.791 -65.1367 82.0312 -68.9453 C 78.2227 -72.7051 70.752 -74.3164 65.2344 -69.0918 C 61.377 -65.332 60.3516 -58.7891 55.4199 -53.3203 L 54.1504 -54.541 C 52.4414 -56.2012 50.4883 -56.0547 48.7305 -54.5898 L 47.998 -53.9062 C 45.8496 -52.0996 46.3379 -50.1953 48.0957 -48.4375 L 50.1465 -46.3867 L 21.3379 -17.5781 C 10.2051 -6.44531 14.8438 -7.42188 8.78906 1.12305 L 11.2305 3.80859 C 19.5312 -2.19727 19.043 3.02734 30.3711 -8.20312 L 59.4238 -37.1094 L 61.5234 -35.0098 C 63.2812 -33.252 65.1855 -32.7637 66.9922 -34.9121 Z M 18.2617 -5.12695 C 16.0645 -7.51953 16.5039 -9.7168 18.7012 -11.9141 L 51.6602 -44.873 L 57.9102 -38.623 L 24.707 -5.51758 C 22.8027 -3.61328 20.4102 -2.83203 18.2617 -5.12695 Z"/>
  </g>
 </g>
</svg>
