<?xml version="1.0" encoding="UTF-8"?>
<!--Generator: Apple Native CoreSVG 123-->
<!DOCTYPE svg
        PUBLIC "-//W3C//DTD SVG 1.1//EN"
        "http://www.w3.org/Graphics/SVG/1.1/DTD/svg11.dtd">
<svg version="1.1" xmlns="http://www.w3.org/2000/svg"
     width="3300" height="2200">
    <!--glyph: "uni1006EF.medium", point size: 100.000000, font version: "Version 15.0d7e11", template writer version: "5"-->
    <g id="Notes">
        <rect height="2200" id="artboard" style="fill:white;opacity:1"
              width="3300" x="0" y="0"/>
        <line id="" style="fill:none;stroke:black;opacity:1;stroke-width:0.5;"
              x1="263" x2="3036" y1="292" y2="292"/>
        <text style="stroke:none;fill:black;font-family:-apple-system,&quot;SF Pro Display&quot;,&quot;SF Pro Text&quot;,Helvetica,sans-serif;font-weight:bold;"
              transform="matrix(1 0 0 1 263 322)">Weight/Scale Variations
        </text>
        <text style="stroke:none;fill:black;font-family:-apple-system,&quot;SF Pro Display&quot;,&quot;SF Pro Text&quot;,Helvetica,sans-serif;text-anchor:middle;"
              transform="matrix(1 0 0 1 559.711 322)">Ultralight
        </text>
        <text style="stroke:none;fill:black;font-family:-apple-system,&quot;SF Pro Display&quot;,&quot;SF Pro Text&quot;,Helvetica,sans-serif;text-anchor:middle;"
              transform="matrix(1 0 0 1 856.422 322)">Thin
        </text>
        <text style="stroke:none;fill:black;font-family:-apple-system,&quot;SF Pro Display&quot;,&quot;SF Pro Text&quot;,Helvetica,sans-serif;text-anchor:middle;"
              transform="matrix(1 0 0 1 1153.13 322)">Light
        </text>
        <text style="stroke:none;fill:black;font-family:-apple-system,&quot;SF Pro Display&quot;,&quot;SF Pro Text&quot;,Helvetica,sans-serif;text-anchor:middle;"
              transform="matrix(1 0 0 1 1449.84 322)">Regular
        </text>
        <text style="stroke:none;fill:black;font-family:-apple-system,&quot;SF Pro Display&quot;,&quot;SF Pro Text&quot;,Helvetica,sans-serif;text-anchor:middle;"
              transform="matrix(1 0 0 1 1746.56 322)">Medium
        </text>
        <text style="stroke:none;fill:black;font-family:-apple-system,&quot;SF Pro Display&quot;,&quot;SF Pro Text&quot;,Helvetica,sans-serif;text-anchor:middle;"
              transform="matrix(1 0 0 1 2043.27 322)">Semibold
        </text>
        <text style="stroke:none;fill:black;font-family:-apple-system,&quot;SF Pro Display&quot;,&quot;SF Pro Text&quot;,Helvetica,sans-serif;text-anchor:middle;"
              transform="matrix(1 0 0 1 2339.98 322)">Bold
        </text>
        <text style="stroke:none;fill:black;font-family:-apple-system,&quot;SF Pro Display&quot;,&quot;SF Pro Text&quot;,Helvetica,sans-serif;text-anchor:middle;"
              transform="matrix(1 0 0 1 2636.69 322)">Heavy
        </text>
        <text style="stroke:none;fill:black;font-family:-apple-system,&quot;SF Pro Display&quot;,&quot;SF Pro Text&quot;,Helvetica,sans-serif;text-anchor:middle;"
              transform="matrix(1 0 0 1 2933.4 322)">Black
        </text>
        <line id="" style="fill:none;stroke:black;opacity:1;stroke-width:0.5;"
              x1="263" x2="3036" y1="1903" y2="1903"/>
        <g id="" transform="matrix(1 0 0 1 263 1933)">
            <path d="M 9.24805 0.830078 C 13.5547 0.830078 17.1387 -2.74414 17.1387 -7.05078 C 17.1387 -11.3574 13.5449 -14.9316 9.23828 -14.9316 C 4.94141 -14.9316 1.36719 -11.3574 1.36719 -7.05078 C 1.36719 -2.74414 4.95117 0.830078 9.24805 0.830078 Z M 9.24805 -0.654297 C 5.70312 -0.654297 2.87109 -3.49609 2.87109 -7.05078 C 2.87109 -10.6055 5.69336 -13.4473 9.23828 -13.4473 C 12.793 -13.4473 15.6348 -10.6055 15.6445 -7.05078 C 15.6543 -3.49609 12.8027 -0.654297 9.24805 -0.654297 Z M 9.22852 -3.42773 C 9.69727 -3.42773 9.9707 -3.74023 9.9707 -4.25781 L 9.9707 -6.31836 L 12.1973 -6.31836 C 12.6953 -6.31836 13.0371 -6.57227 13.0371 -7.04102 C 13.0371 -7.51953 12.7148 -7.7832 12.1973 -7.7832 L 9.9707 -7.7832 L 9.9707 -10.0098 C 9.9707 -10.5273 9.69727 -10.8496 9.22852 -10.8496 C 8.75977 -10.8496 8.50586 -10.5078 8.50586 -10.0098 L 8.50586 -7.7832 L 6.29883 -7.7832 C 5.78125 -7.7832 5.44922 -7.51953 5.44922 -7.04102 C 5.44922 -6.57227 5.80078 -6.31836 6.29883 -6.31836 L 8.50586 -6.31836 L 8.50586 -4.25781 C 8.50586 -3.75977 8.75977 -3.42773 9.22852 -3.42773 Z"/>
        </g>
        <g id="" transform="matrix(1 0 0 1 281.506 1933)">
            <path d="M 11.709 2.91016 C 17.1582 2.91016 21.6699 -1.60156 21.6699 -7.05078 C 21.6699 -12.4902 17.1484 -17.0117 11.6992 -17.0117 C 6.25977 -17.0117 1.74805 -12.4902 1.74805 -7.05078 C 1.74805 -1.60156 6.26953 2.91016 11.709 2.91016 Z M 11.709 1.25 C 7.09961 1.25 3.41797 -2.44141 3.41797 -7.05078 C 3.41797 -11.6504 7.08984 -15.3516 11.6992 -15.3516 C 16.3086 -15.3516 20 -11.6504 20.0098 -7.05078 C 20.0195 -2.44141 16.3184 1.25 11.709 1.25 Z M 11.6895 -2.41211 C 12.207 -2.41211 12.5195 -2.77344 12.5195 -3.33984 L 12.5195 -6.23047 L 15.5762 -6.23047 C 16.123 -6.23047 16.5039 -6.51367 16.5039 -7.03125 C 16.5039 -7.55859 16.1426 -7.86133 15.5762 -7.86133 L 12.5195 -7.86133 L 12.5195 -10.9277 C 12.5195 -11.5039 12.207 -11.8555 11.6895 -11.8555 C 11.1719 -11.8555 10.8789 -11.4844 10.8789 -10.9277 L 10.8789 -7.86133 L 7.83203 -7.86133 C 7.26562 -7.86133 6.89453 -7.55859 6.89453 -7.03125 C 6.89453 -6.51367 7.28516 -6.23047 7.83203 -6.23047 L 10.8789 -6.23047 L 10.8789 -3.33984 C 10.8789 -2.79297 11.1719 -2.41211 11.6895 -2.41211 Z"/>
        </g>
        <g id="" transform="matrix(1 0 0 1 304.924 1933)">
            <path d="M 14.9707 5.67383 C 21.9336 5.67383 27.6953 -0.078125 27.6953 -7.04102 C 27.6953 -14.0039 21.9238 -19.7559 14.9609 -19.7559 C 8.00781 -19.7559 2.25586 -14.0039 2.25586 -7.04102 C 2.25586 -0.078125 8.01758 5.67383 14.9707 5.67383 Z M 14.9707 3.85742 C 8.93555 3.85742 4.08203 -1.00586 4.08203 -7.04102 C 4.08203 -13.0762 8.92578 -17.9395 14.9609 -17.9395 C 21.0059 -17.9395 25.8594 -13.0762 25.8691 -7.04102 C 25.8789 -1.00586 21.0156 3.85742 14.9707 3.85742 Z M 14.9512 -1.06445 C 15.5176 -1.06445 15.8691 -1.45508 15.8691 -2.06055 L 15.8691 -6.13281 L 20.1074 -6.13281 C 20.6934 -6.13281 21.1133 -6.46484 21.1133 -7.02148 C 21.1133 -7.59766 20.7227 -7.93945 20.1074 -7.93945 L 15.8691 -7.93945 L 15.8691 -12.1875 C 15.8691 -12.8027 15.5176 -13.1934 14.9512 -13.1934 C 14.3848 -13.1934 14.0625 -12.7832 14.0625 -12.1875 L 14.0625 -7.93945 L 9.83398 -7.93945 C 9.21875 -7.93945 8.80859 -7.59766 8.80859 -7.02148 C 8.80859 -6.46484 9.23828 -6.13281 9.83398 -6.13281 L 14.0625 -6.13281 L 14.0625 -2.06055 C 14.0625 -1.47461 14.3848 -1.06445 14.9512 -1.06445 Z"/>
        </g>
        <text style="stroke:none;fill:black;font-family:-apple-system,&quot;SF Pro Display&quot;,&quot;SF Pro Text&quot;,Helvetica,sans-serif;font-weight:bold;"
              transform="matrix(1 0 0 1 263 1953)">Design Variations
        </text>
        <text style="stroke:none;fill:black;font-family:-apple-system,&quot;SF Pro Display&quot;,&quot;SF Pro Text&quot;,Helvetica,sans-serif;"
              transform="matrix(1 0 0 1 263 1971)">Symbols are supported in up
            to nine weights and three scales.
        </text>
        <text style="stroke:none;fill:black;font-family:-apple-system,&quot;SF Pro Display&quot;,&quot;SF Pro Text&quot;,Helvetica,sans-serif;"
              transform="matrix(1 0 0 1 263 1989)">For optimal layout with text
            and other symbols, vertically align
        </text>
        <text style="stroke:none;fill:black;font-family:-apple-system,&quot;SF Pro Display&quot;,&quot;SF Pro Text&quot;,Helvetica,sans-serif;"
              transform="matrix(1 0 0 1 263 2007)">symbols with the adjacent
            text.
        </text>
        <rect height="14" id="" style="fill:#00AEEF;stroke:none;opacity:0.4;"
              width="3" x="776" y="1919"/>
        <g id="" transform="matrix(1 0 0 1 779 1933)">
            <path d="M 10.5273 0 L 12.373 0 L 7.17773 -14.0918 L 5.43945 -14.0918 L 0.244141 0 L 2.08984 0 L 3.50586 -4.0332 L 9.11133 -4.0332 Z M 6.2793 -11.9531 L 6.33789 -11.9531 L 8.59375 -5.52734 L 4.02344 -5.52734 Z"/>
        </g>
        <rect height="14" id="" style="fill:#00AEEF;stroke:none;opacity:0.4;"
              width="3" x="791.617" y="1919"/>
        <text style="stroke:none;fill:black;font-family:-apple-system,&quot;SF Pro Display&quot;,&quot;SF Pro Text&quot;,Helvetica,sans-serif;font-weight:bold;"
              transform="matrix(1 0 0 1 776 1953)">Margins
        </text>
        <text style="stroke:none;fill:black;font-family:-apple-system,&quot;SF Pro Display&quot;,&quot;SF Pro Text&quot;,Helvetica,sans-serif;"
              transform="matrix(1 0 0 1 776 1971)">Leading and trailing margins
            on the left and right side of each symbol
        </text>
        <text style="stroke:none;fill:black;font-family:-apple-system,&quot;SF Pro Display&quot;,&quot;SF Pro Text&quot;,Helvetica,sans-serif;"
              transform="matrix(1 0 0 1 776 1989)">can be adjusted by modifying
            the width of the blue rectangles.
        </text>
        <text style="stroke:none;fill:black;font-family:-apple-system,&quot;SF Pro Display&quot;,&quot;SF Pro Text&quot;,Helvetica,sans-serif;"
              transform="matrix(1 0 0 1 776 2007)">Modifications are
            automatically applied proportionally to all
        </text>
        <text style="stroke:none;fill:black;font-family:-apple-system,&quot;SF Pro Display&quot;,&quot;SF Pro Text&quot;,Helvetica,sans-serif;"
              transform="matrix(1 0 0 1 776 2025)">scales and weights.
        </text>
        <g id="" transform="matrix(1 0 0 1 1289 1933)">
            <path d="M 2.83203 3.11523 L 4.375 4.6582 C 5.22461 5.48828 6.19141 5.41992 7.06055 4.46289 L 17.2754 -6.66016 C 17.7051 -6.36719 18.0957 -6.37695 18.5645 -6.47461 L 19.6094 -6.68945 L 20.3027 -5.99609 L 20.2539 -5.47852 C 20.1855 -4.95117 20.3516 -4.53125 20.8496 -4.0332 L 21.6602 -3.22266 C 22.168 -2.71484 22.8223 -2.68555 23.3008 -3.16406 L 26.5527 -6.41602 C 27.0312 -6.89453 27.0117 -7.54883 26.5039 -8.05664 L 25.6836 -8.87695 C 25.1855 -9.375 24.7754 -9.55078 24.2383 -9.47266 L 23.7109 -9.41406 L 23.0566 -10.0781 L 23.3398 -11.2207 C 23.4863 -11.7871 23.3398 -12.2559 22.7148 -12.8613 L 20.3027 -15.2539 C 16.7578 -18.7793 12.2266 -18.6719 9.11133 -15.5371 C 8.69141 -15.1074 8.64258 -14.5215 8.91602 -14.0918 C 9.15039 -13.7207 9.62891 -13.4961 10.2734 -13.6621 C 11.7871 -14.043 13.3008 -13.9258 14.7852 -12.9199 L 14.1602 -11.3379 C 13.9258 -10.752 13.9453 -10.2734 14.1797 -9.83398 L 3.01758 0.439453 C 2.08008 1.30859 1.97266 2.25586 2.83203 3.11523 Z M 10.6738 -15.1465 C 13.3398 -17.1387 16.6504 -16.8262 19.0527 -14.4141 L 21.6797 -11.8066 C 21.9141 -11.5723 21.9434 -11.3867 21.8848 -11.0938 L 21.5039 -9.53125 L 23.0762 -7.95898 L 24.043 -8.04688 C 24.3262 -8.07617 24.4141 -8.05664 24.6387 -7.83203 L 25.2637 -7.20703 L 22.5098 -4.46289 L 21.8848 -5.07812 C 21.6602 -5.30273 21.6406 -5.40039 21.6699 -5.68359 L 21.7578 -6.64062 L 20.1953 -8.20312 L 18.5742 -7.89062 C 18.291 -7.83203 18.1445 -7.83203 17.9102 -8.07617 L 15.7324 -10.2539 C 15.5078 -10.4883 15.4785 -10.625 15.6055 -10.9473 L 16.5527 -13.2227 C 14.9512 -14.7559 12.8418 -15.6055 10.8008 -14.9512 C 10.7129 -14.9219 10.6445 -14.9414 10.6152 -14.9805 C 10.5859 -15.0293 10.5859 -15.0781 10.6738 -15.1465 Z M 4.10156 2.41211 C 3.61328 1.91406 3.78906 1.61133 4.12109 1.30859 L 15.0781 -8.80859 L 16.3086 -7.57812 L 6.15234 3.34961 C 5.84961 3.68164 5.46875 3.7793 5.06836 3.37891 Z"/>
        </g>
        <text style="stroke:none;fill:black;font-family:-apple-system,&quot;SF Pro Display&quot;,&quot;SF Pro Text&quot;,Helvetica,sans-serif;font-weight:bold;"
              transform="matrix(1 0 0 1 1289 1953)">Exporting
        </text>
        <text style="stroke:none;fill:black;font-family:-apple-system,&quot;SF Pro Display&quot;,&quot;SF Pro Text&quot;,Helvetica,sans-serif;"
              transform="matrix(1 0 0 1 1289 1971)">Symbols should be outlined
            when exporting to ensure the
        </text>
        <text style="stroke:none;fill:black;font-family:-apple-system,&quot;SF Pro Display&quot;,&quot;SF Pro Text&quot;,Helvetica,sans-serif;"
              transform="matrix(1 0 0 1 1289 1989)">design is preserved when
            submitting to Xcode.
        </text>
        <text id="template-version"
              style="stroke:none;fill:black;font-family:-apple-system,&quot;SF Pro Display&quot;,&quot;SF Pro Text&quot;,Helvetica,sans-serif;text-anchor:end;"
              transform="matrix(1 0 0 1 3036 1933)">Template v.1.0
        </text>
        <text style="stroke:none;fill:black;font-family:-apple-system,&quot;SF Pro Display&quot;,&quot;SF Pro Text&quot;,Helvetica,sans-serif;text-anchor:end;"
              transform="matrix(1 0 0 1 3036 1951)">Generated from rosette
        </text>
        <text style="stroke:none;fill:black;font-family:-apple-system,&quot;SF Pro Display&quot;,&quot;SF Pro Text&quot;,Helvetica,sans-serif;text-anchor:end;"
              transform="matrix(1 0 0 1 3036 1969)">Typeset at 100 points
        </text>
        <text style="stroke:none;fill:black;font-family:-apple-system,&quot;SF Pro Display&quot;,&quot;SF Pro Text&quot;,Helvetica,sans-serif;"
              transform="matrix(1 0 0 1 263 726)">Small
        </text>
        <text style="stroke:none;fill:black;font-family:-apple-system,&quot;SF Pro Display&quot;,&quot;SF Pro Text&quot;,Helvetica,sans-serif;"
              transform="matrix(1 0 0 1 263 1156)">Medium
        </text>
        <text style="stroke:none;fill:black;font-family:-apple-system,&quot;SF Pro Display&quot;,&quot;SF Pro Text&quot;,Helvetica,sans-serif;"
              transform="matrix(1 0 0 1 263 1586)">Large
        </text>
    </g>
    <g id="Guides">
        <g id="H-reference" style="fill:#27AAE1;stroke:none;"
           transform="matrix(1 0 0 1 339 696)">
            <path d="M 54.9316 0 L 57.666 0 L 30.5664 -70.459 L 28.0762 -70.459 L 0.976562 0 L 3.66211 0 L 12.9395 -24.4629 L 45.7031 -24.4629 Z M 29.1992 -67.0898 L 29.4434 -67.0898 L 44.8242 -26.709 L 13.8184 -26.709 Z"/>
        </g>
        <line id="Baseline-S"
              style="fill:none;stroke:#27AAE1;opacity:1;stroke-width:0.577;"
              x1="263" x2="3036" y1="696" y2="696"/>
        <line id="Capline-S"
              style="fill:none;stroke:#27AAE1;opacity:1;stroke-width:0.577;"
              x1="263" x2="3036" y1="625.541" y2="625.541"/>
        <g id="H-reference" style="fill:#27AAE1;stroke:none;"
           transform="matrix(1 0 0 1 339 1126)">
            <path d="M 54.9316 0 L 57.666 0 L 30.5664 -70.459 L 28.0762 -70.459 L 0.976562 0 L 3.66211 0 L 12.9395 -24.4629 L 45.7031 -24.4629 Z M 29.1992 -67.0898 L 29.4434 -67.0898 L 44.8242 -26.709 L 13.8184 -26.709 Z"/>
        </g>
        <line id="Baseline-M"
              style="fill:none;stroke:#27AAE1;opacity:1;stroke-width:0.577;"
              x1="263" x2="3036" y1="1126" y2="1126"/>
        <line id="Capline-M"
              style="fill:none;stroke:#27AAE1;opacity:1;stroke-width:0.577;"
              x1="263" x2="3036" y1="1055.54" y2="1055.54"/>
        <g id="H-reference" style="fill:#27AAE1;stroke:none;"
           transform="matrix(1 0 0 1 339 1556)">
            <path d="M 54.9316 0 L 57.666 0 L 30.5664 -70.459 L 28.0762 -70.459 L 0.976562 0 L 3.66211 0 L 12.9395 -24.4629 L 45.7031 -24.4629 Z M 29.1992 -67.0898 L 29.4434 -67.0898 L 44.8242 -26.709 L 13.8184 -26.709 Z"/>
        </g>
        <line id="Baseline-L"
              style="fill:none;stroke:#27AAE1;opacity:1;stroke-width:0.577;"
              x1="263" x2="3036" y1="1556" y2="1556"/>
        <line id="Capline-L"
              style="fill:none;stroke:#27AAE1;opacity:1;stroke-width:0.577;"
              x1="263" x2="3036" y1="1485.54" y2="1485.54"/>
        <rect height="119.336" id="left-margin"
              style="fill:#00AEEF;stroke:none;opacity:0.4;" width="8.74023"
              x="1402.29" y="1030.79"/>
        <rect height="119.336" id="right-margin"
              style="fill:#00AEEF;stroke:none;opacity:0.4;" width="8.74013"
              x="1488.66" y="1030.79"/>
    </g>
    <g id="Symbols">
        <g id="Black-L" transform="matrix(1 0 0 1 2865.28 1556)">
            <path d="M 106.543 28.2715 L 106.543 -13.8184 C 117.871 -24.1699 124.902 -39.1113 124.951 -55.957 C 124.951 -87.793 99.8535 -112.891 68.1152 -112.891 C 36.3281 -112.891 11.2793 -87.793 11.2793 -55.957 C 11.2793 -38.0371 19.2383 -22.2168 31.8848 -11.8164 L 31.9336 28.2715 C 31.9336 34.8145 36.2793 37.9883 41.3086 37.9883 C 44.6777 37.9883 47.0215 36.6699 49.6094 34.1309 L 67.5781 16.2598 C 68.0664 15.8203 68.6523 15.5273 69.2383 15.5273 C 69.873 15.5273 70.4102 15.8203 70.8984 16.2598 L 88.9648 34.1309 C 91.5039 36.5723 93.8965 37.9883 97.2168 37.9883 C 102.246 37.9883 106.543 34.8145 106.543 28.2715 Z M 68.1152 -19.5312 C 47.8027 -19.5312 31.7871 -35.9375 31.8359 -55.957 C 31.7871 -76.0742 47.8027 -92.4805 68.1152 -92.4805 C 88.4277 -92.4805 104.443 -76.0742 104.443 -55.957 C 104.492 -35.9375 88.4277 -19.4824 68.1152 -19.5312 Z"/>
        </g>
        <g id="Heavy-L" transform="matrix(1 0 0 1 2570.33 1556)">
            <path d="M 103.613 28.0273 L 103.613 -15.6738 C 114.6 -25.7324 121.436 -40.1855 121.436 -56.4453 C 121.436 -87.207 97.0215 -111.67 66.3574 -111.67 C 35.6445 -111.67 11.2793 -87.207 11.2793 -56.4453 C 11.2793 -39.3555 18.8477 -24.1699 30.8105 -14.1113 L 30.8594 28.0273 C 30.8594 33.8379 34.5703 36.5723 39.0137 36.5723 C 42.041 36.5723 44.1895 35.3027 46.5332 32.959 L 65.2344 14.4043 C 65.918 13.7207 66.6016 13.3789 67.2363 13.3789 C 67.9199 13.3789 68.5547 13.7207 69.2383 14.4043 L 88.0371 32.959 C 90.332 35.2539 92.5293 36.5723 95.5078 36.5723 C 99.9023 36.5723 103.613 33.8379 103.613 28.0273 Z M 66.4062 -18.9453 C 45.459 -18.9453 29.0039 -35.791 29.0527 -56.4453 C 29.0039 -77.1973 45.459 -94.043 66.4062 -94.043 C 87.2559 -94.043 103.711 -77.1973 103.76 -56.4453 C 103.76 -35.791 87.2559 -18.8965 66.4062 -18.9453 Z"/>
        </g>
        <g id="Bold-L" transform="matrix(1 0 0 1 2275.57 1556)">
            <path d="M 100.342 27.7344 L 100.342 -17.7734 C 110.889 -27.4902 117.48 -41.4062 117.529 -56.9824 C 117.529 -86.5723 93.8477 -110.254 64.4043 -110.254 C 34.9121 -110.254 11.2793 -86.5723 11.2793 -56.9824 C 11.2793 -40.8203 18.3594 -26.416 29.6387 -16.6992 L 29.6387 27.7344 C 29.6387 32.666 32.7148 35.0098 36.377 35.0098 C 39.0625 35.0098 41.0156 33.7402 43.1152 31.6895 L 62.5977 12.3047 C 63.5254 11.4258 64.2578 11.0352 64.9902 11.0352 C 65.7227 11.0352 66.4551 11.4258 67.3828 12.3047 L 86.9141 31.6895 C 89.0137 33.7402 90.9668 35.0098 93.6035 35.0098 C 97.3145 35.0098 100.342 32.666 100.342 27.7344 Z M 64.4531 -18.2617 C 42.8711 -18.3105 25.9277 -35.5957 25.9277 -56.9824 C 25.9277 -78.418 42.8711 -95.752 64.4531 -95.752 C 85.9375 -95.752 102.93 -78.418 102.93 -56.9824 C 102.979 -35.5957 85.9375 -18.2129 64.4531 -18.2617 Z"/>
        </g>
        <g id="Semibold-L" transform="matrix(1 0 0 1 1980.23 1556)">
            <path d="M 98.0957 27.5879 L 98.0957 -19.2383 C 108.35 -28.6621 114.795 -42.2363 114.795 -57.373 C 114.844 -86.1328 91.6016 -109.277 63.0371 -109.277 C 34.4238 -109.277 11.2793 -86.1328 11.2793 -57.373 C 11.2793 -41.8457 18.0664 -27.9785 28.7598 -18.457 L 28.8086 27.5879 C 28.8086 31.8848 31.3965 33.9355 34.6191 33.9355 C 37.0605 33.9355 38.8672 32.666 40.7227 30.8105 L 60.7422 10.8887 C 61.8652 9.81445 62.6465 9.42383 63.4766 9.42383 C 64.209 9.42383 65.0391 9.81445 66.1621 10.8887 L 86.1816 30.8105 C 88.0859 32.7148 89.9414 33.9355 92.2852 33.9355 C 95.5566 33.9355 98.0957 31.8848 98.0957 27.5879 Z M 63.0859 -17.8223 C 41.0645 -17.8223 23.7793 -35.498 23.7793 -57.373 C 23.7793 -79.2969 41.0645 -96.9727 63.0859 -96.9727 C 85.0586 -96.9727 102.344 -79.2969 102.393 -57.373 C 102.441 -35.498 85.0586 -17.7734 63.0859 -17.8223 Z"/>
        </g>
        <g id="Medium-L" transform="matrix(1 0 0 1 1684.54 1556)">
            <path d="M 96.3867 27.4414 L 96.3867 -20.3125 C 106.396 -29.5898 112.744 -42.8711 112.744 -57.666 C 112.793 -85.7422 89.9414 -108.545 62.0117 -108.545 C 34.0332 -108.545 11.2793 -85.7422 11.2793 -57.666 C 11.2793 -42.627 17.8223 -29.1504 28.125 -19.8242 L 28.1738 27.4414 C 28.1738 31.2988 30.4199 33.1055 33.252 33.1055 C 35.498 33.1055 37.207 31.8359 38.916 30.1758 L 59.375 9.81445 C 60.5957 8.64258 61.4746 8.20312 62.3047 8.20312 C 63.0859 8.20312 63.9648 8.64258 65.1855 9.81445 L 85.6445 30.1758 C 87.4023 31.9336 89.1113 33.1055 91.3086 33.1055 C 94.1895 33.1055 96.3867 31.2988 96.3867 27.4414 Z M 62.0605 -17.4805 C 39.6973 -17.4805 22.168 -35.4004 22.168 -57.666 C 22.168 -79.9316 39.6973 -97.8516 62.0605 -97.8516 C 84.375 -97.8516 101.953 -79.9316 102.002 -57.666 C 102.002 -35.4004 84.375 -17.4316 62.0605 -17.4805 Z"/>
        </g>
        <g id="Regular-L" transform="matrix(1 0 0 1 1389.15 1556)">
            <path d="M 94.1406 27.2461 L 94.1406 -21.7285 C 103.906 -30.8105 110.059 -43.7012 110.107 -58.0078 C 110.156 -85.3027 87.793 -107.617 60.6934 -107.617 C 33.5449 -107.617 11.2793 -85.3027 11.2793 -58.0078 C 11.2793 -43.6523 17.4805 -30.6641 27.3438 -21.582 L 27.3926 27.2461 C 27.3926 30.5176 29.1016 32.0312 31.4453 32.0312 C 33.4961 32.0312 35.0098 30.8105 36.5723 29.2969 L 57.5684 8.39844 C 58.9355 7.03125 59.8633 6.5918 60.7422 6.5918 C 61.6211 6.5918 62.5488 7.03125 63.916 8.39844 L 84.8633 29.2969 C 86.5234 30.9082 88.0859 32.0312 89.9902 32.0312 C 92.4316 32.0312 94.1406 30.5176 94.1406 27.2461 Z M 60.7422 -16.9922 C 37.9395 -17.041 20.0195 -35.3027 20.0195 -58.0078 C 20.0195 -80.8105 37.9395 -99.0723 60.7422 -99.0723 C 83.4961 -99.0723 101.367 -80.8105 101.416 -58.0078 C 101.465 -35.3027 83.4961 -16.9434 60.7422 -16.9922 Z"/>
        </g>
        <g id="Light-L" transform="matrix(1 0 0 1 1093.39 1556)">
            <path d="M 93.3594 27.0996 L 93.3594 -23.6328 C 102.49 -32.4707 108.203 -44.8242 108.203 -58.4473 C 108.252 -85.2051 86.377 -107.031 59.7168 -107.031 C 33.1055 -107.031 11.2793 -85.2051 11.2793 -58.4473 C 11.2793 -44.7754 16.9922 -32.3242 26.1719 -23.4863 L 26.2207 27.0996 C 26.2207 29.7852 27.6855 31.1523 29.6875 31.1523 C 31.5918 31.1523 32.8613 29.9805 34.2285 28.7109 L 55.8594 7.12891 C 57.6172 5.37109 58.7891 4.78516 59.8145 4.78516 C 60.8398 4.78516 61.9629 5.37109 63.7207 7.12891 L 85.3516 28.7109 C 86.7676 30.127 88.0859 31.1523 89.8438 31.1523 C 91.9922 31.1523 93.3594 29.7852 93.3594 27.0996 Z M 59.7656 -16.3574 C 36.4746 -16.4062 17.9688 -35.1562 17.9688 -58.4473 C 17.9688 -81.7383 36.4746 -100.488 59.7656 -100.488 C 83.0078 -100.488 101.562 -81.7383 101.562 -58.4473 C 101.611 -35.1562 83.0078 -16.3574 59.7656 -16.3574 Z"/>
        </g>
        <g id="Thin-L" transform="matrix(1 0 0 1 797.926 1556)">
            <path d="M 92.3828 26.9531 L 92.3828 -26.123 C 100.635 -34.668 105.713 -46.2891 105.713 -58.9844 C 105.713 -85.0098 84.4727 -106.299 58.4961 -106.299 C 32.5195 -106.299 11.2793 -85.0098 11.2793 -58.9844 C 11.2793 -46.2402 16.4062 -34.5703 24.707 -26.0742 L 24.707 26.9531 C 24.707 28.7598 25.7812 30.0293 27.3438 30.0293 C 29.0039 30.0293 30.0293 28.9551 31.1035 27.9297 L 53.6133 5.46875 C 55.9082 3.17383 57.3242 2.44141 58.5938 2.44141 C 59.8145 2.44141 61.1816 3.17383 63.4766 5.46875 L 85.9375 27.9297 C 87.1094 29.1016 88.1348 30.0293 89.6484 30.0293 C 91.3574 30.0293 92.3828 28.7598 92.3828 26.9531 Z M 58.4961 -15.5273 C 34.5703 -15.5762 15.2344 -35.0098 15.2344 -58.9844 C 15.2344 -83.0078 34.5703 -102.393 58.4961 -102.393 C 82.4219 -102.393 101.758 -83.0078 101.758 -58.9844 C 101.807 -35.0098 82.4219 -15.5273 58.4961 -15.5273 Z"/>
        </g>
        <g id="Ultralight-L" transform="matrix(1 0 0 1 501.85 1556)">
            <path d="M 91.8457 -27.1973 L 91.2109 -26.8066 C 99.3652 -35.2051 104.443 -46.6797 104.443 -59.2773 C 104.443 -84.9121 83.4961 -105.957 57.8613 -105.957 C 32.2266 -105.957 11.2793 -84.9121 11.2793 -59.2773 C 11.2793 -46.7285 16.3086 -35.2539 24.4629 -26.8555 L 23.9258 -27.1973 L 23.9258 26.8555 C 23.9258 28.2715 24.8047 29.4434 26.123 29.4434 C 27.6855 29.4434 28.6133 28.418 29.4922 27.4902 L 52.4414 4.58984 C 54.9805 2.05078 56.5918 1.2207 57.959 1.2207 C 59.2773 1.2207 60.791 2.05078 63.3301 4.58984 L 86.2305 27.4902 C 87.3047 28.5645 88.1836 29.4434 89.5508 29.4434 C 91.0645 29.4434 91.8457 28.2715 91.8457 26.8555 Z M 57.8613 -15.1367 C 33.5449 -15.1367 13.8184 -34.9121 13.8184 -59.2773 C 13.8184 -83.6914 33.5449 -103.369 57.8613 -103.369 C 82.1289 -103.369 101.904 -83.6914 101.904 -59.2773 C 101.855 -34.9121 82.1289 -15.1367 57.8613 -15.1367 Z"/>
        </g>
        <g id="Black-M" transform="matrix(1 0 0 1 2878.76 1126)">
            <path d="M 86.1328 14.2578 L 86.1328 -17.0898 C 95.0684 -25.3906 100.537 -37.3535 100.537 -50.8789 C 100.537 -76.709 80.4688 -96.8262 54.6387 -96.8262 C 28.8086 -96.8262 8.74023 -76.709 8.74023 -50.8789 C 8.74023 -36.1816 15.2344 -23.3398 25.5859 -14.9902 L 25.5859 14.2578 C 25.5859 20.0195 29.6387 22.9492 34.2285 22.9492 C 37.1094 22.9492 39.1113 21.9238 41.3086 19.7266 L 54.6875 6.54297 C 54.9805 6.20117 55.4199 5.95703 55.8594 5.95703 C 56.3477 5.95703 56.7383 6.20117 57.0312 6.54297 L 70.5078 19.7266 C 72.6562 21.8262 74.6582 22.9492 77.5391 22.9492 C 82.0801 22.9492 86.1328 20.0195 86.1328 14.2578 Z M 54.6387 -23.5352 C 39.4043 -23.5352 27.2949 -35.8887 27.3438 -50.8789 C 27.2949 -65.918 39.4043 -78.2715 54.6387 -78.2715 C 69.873 -78.2715 81.9824 -65.918 81.9824 -50.8789 C 81.9824 -35.8887 69.873 -23.5352 54.6387 -23.5352 Z"/>
        </g>
        <g id="Heavy-M" transform="matrix(1 0 0 1 2583.71 1126)">
            <path d="M 83.1055 14.0137 L 83.1055 -18.6523 C 91.7969 -26.709 97.2168 -38.2812 97.2168 -51.2695 C 97.2168 -76.0742 77.7344 -95.6055 52.9785 -95.6055 C 28.1738 -95.6055 8.74023 -76.0742 8.74023 -51.2695 C 8.74023 -37.3535 14.8926 -25.0977 24.707 -16.9922 L 24.707 14.0137 C 24.707 19.1406 28.125 21.6309 32.1289 21.6309 C 34.7656 21.6309 36.5723 20.6543 38.5742 18.6523 L 52.5391 4.83398 C 52.9785 4.39453 53.418 4.15039 53.9062 4.15039 C 54.4434 4.15039 54.834 4.39453 55.2734 4.83398 L 69.3359 18.6523 C 71.2891 20.5566 73.1445 21.6309 75.7324 21.6309 C 79.6875 21.6309 83.1055 19.1406 83.1055 14.0137 Z M 52.9785 -23.0469 C 37.2559 -23.0469 24.8047 -35.791 24.8535 -51.2695 C 24.8047 -66.8945 37.2559 -79.5898 52.9785 -79.5898 C 68.7012 -79.5898 81.1523 -66.8945 81.1523 -51.2695 C 81.2012 -35.791 68.7012 -23.0469 52.9785 -23.0469 Z"/>
        </g>
        <g id="Bold-M" transform="matrix(1 0 0 1 2288.88 1126)">
            <path d="M 79.7363 13.7695 L 79.7363 -20.4102 C 88.1836 -28.125 93.457 -39.2578 93.457 -51.7578 C 93.5059 -75.3906 74.6582 -94.2383 51.123 -94.2383 C 27.5391 -94.2383 8.74023 -75.3906 8.74023 -51.7578 C 8.74023 -38.6719 14.502 -27.0508 23.6816 -19.2871 L 23.7305 13.7695 C 23.7305 18.1152 26.5137 20.166 29.7852 20.166 C 32.0801 20.166 33.7402 19.1895 35.498 17.4316 L 50.1465 2.88086 C 50.6836 2.34375 51.2207 2.09961 51.7578 2.09961 C 52.2461 2.09961 52.7832 2.34375 53.3691 2.88086 L 68.0176 17.4316 C 69.7754 19.1406 71.4355 20.166 73.6816 20.166 C 77.002 20.166 79.7363 18.1152 79.7363 13.7695 Z M 51.123 -22.5098 C 34.8145 -22.5098 21.9727 -35.6445 22.0215 -51.7578 C 21.9727 -67.9688 34.8145 -81.0547 51.123 -81.0547 C 67.3828 -81.0547 80.2246 -67.9688 80.2734 -51.7578 C 80.2734 -35.6445 67.3828 -22.4609 51.123 -22.5098 Z"/>
        </g>
        <g id="Semibold-M" transform="matrix(1 0 0 1 1993.46 1126)">
            <path d="M 77.4414 13.5742 L 77.4414 -21.6309 C 85.6934 -29.1504 90.8691 -39.9902 90.8691 -52.0996 C 90.918 -74.9512 72.5586 -93.2617 49.8047 -93.2617 C 27.0508 -93.2617 8.74023 -74.9512 8.74023 -52.0996 C 8.74023 -39.5508 14.2578 -28.3691 22.998 -20.8496 L 23.0469 13.5742 C 23.0469 17.3828 25.3906 19.1406 28.2227 19.1406 C 30.2734 19.1406 31.7871 18.1641 33.3984 16.6016 L 48.4863 1.5625 C 49.1211 0.927734 49.707 0.683594 50.2441 0.683594 C 50.7812 0.683594 51.3184 0.927734 52.002 1.5625 L 67.0898 16.6016 C 68.7012 18.1641 70.2637 19.1406 72.2656 19.1406 C 75.1465 19.1406 77.4414 17.3828 77.4414 13.5742 Z M 49.8535 -22.1191 C 33.1543 -22.168 20.0684 -35.5469 20.0684 -52.0996 C 20.0684 -68.7012 33.1543 -82.0801 49.8535 -82.0801 C 66.5039 -82.0801 79.5898 -68.7012 79.6387 -52.0996 C 79.6387 -35.5469 66.5039 -22.0703 49.8535 -22.1191 Z"/>
        </g>
        <g id="Medium-M" transform="matrix(1 0 0 1 1697.73 1126)">
            <path d="M 75.6836 13.4277 L 75.6836 -22.5586 C 83.7891 -29.8828 88.916 -40.4785 88.916 -52.3438 C 88.9648 -74.5605 70.9473 -92.5781 48.8281 -92.5781 C 26.709 -92.5781 8.74023 -74.5605 8.74023 -52.3438 C 8.74023 -40.2344 14.0625 -29.3945 22.5098 -22.0215 L 22.5098 13.4277 C 22.5098 16.8457 24.5117 18.4082 27.002 18.4082 C 28.9062 18.4082 30.3223 17.3828 31.7871 15.918 L 47.2168 0.585938 C 47.9492 -0.146484 48.5352 -0.390625 49.1211 -0.390625 C 49.6582 -0.390625 50.2441 -0.146484 50.9766 0.585938 L 66.4062 15.918 C 67.9199 17.4316 69.3848 18.4082 71.2402 18.4082 C 73.7305 18.4082 75.6836 16.8457 75.6836 13.4277 Z M 48.877 -21.8262 C 31.8848 -21.875 18.6035 -35.4492 18.6035 -52.3438 C 18.6035 -69.2383 31.8848 -82.8613 48.877 -82.8613 C 65.8203 -82.8613 79.1016 -69.2383 79.1504 -52.3438 C 79.1992 -35.4492 65.8203 -21.7773 48.877 -21.8262 Z"/>
        </g>
        <g id="Regular-M" transform="matrix(1 0 0 1 1402.29 1126)">
            <path d="M 73.3887 13.2812 L 73.3887 -23.7305 C 81.2988 -30.8594 86.377 -41.2109 86.377 -52.6367 C 86.4258 -74.1211 68.8477 -91.6504 47.5586 -91.6504 C 26.2207 -91.6504 8.74023 -74.1211 8.74023 -52.6367 C 8.74023 -41.1621 13.8184 -30.7617 21.8262 -23.584 L 21.875 13.2812 C 21.875 16.1621 23.3887 17.3828 25.3906 17.3828 C 27.0996 17.3828 28.3691 16.4062 29.6875 15.0879 L 45.5566 -0.732422 C 46.4355 -1.51367 47.0215 -1.80664 47.6074 -1.80664 C 48.1934 -1.80664 48.8281 -1.51367 49.6582 -0.732422 L 65.5273 15.0879 C 66.8945 16.4551 68.2129 17.3828 69.8242 17.3828 C 71.9238 17.3828 73.3887 16.1621 73.3887 13.2812 Z M 47.6074 -21.4844 C 30.2246 -21.5332 16.6992 -35.3516 16.6992 -52.6367 C 16.6992 -69.9707 30.2246 -83.8867 47.6074 -83.8867 C 64.9414 -83.8867 78.4668 -69.9707 78.5156 -52.6367 C 78.5645 -35.3516 64.9414 -21.4355 47.6074 -21.4844 Z"/>
        </g>
        <g id="Light-M" transform="matrix(1 0 0 1 1106.4 1126)">
            <path d="M 72.7051 13.1348 L 72.7051 -25.3906 C 80.0781 -32.3242 84.668 -42.1875 84.7168 -53.0273 C 84.7168 -74.0234 67.5781 -91.1133 46.7285 -91.1133 C 25.8301 -91.1133 8.74023 -74.0234 8.74023 -53.0273 C 8.74023 -42.1387 13.3789 -32.2266 20.8008 -25.293 L 20.8496 13.1348 C 20.8496 15.4785 22.1191 16.6016 23.7793 16.6016 C 25.3418 16.6016 26.416 15.6738 27.5879 14.5508 L 44.043 -1.85547 C 45.2637 -3.02734 46.0449 -3.41797 46.7773 -3.41797 C 47.5098 -3.41797 48.291 -3.02734 49.4629 -1.85547 L 65.918 14.5508 C 67.1387 15.7715 68.2617 16.6016 69.6777 16.6016 C 71.4844 16.6016 72.7051 15.4785 72.7051 13.1348 Z M 46.7285 -20.8984 C 28.9062 -20.9473 14.8438 -35.2539 14.8438 -53.0273 C 14.8438 -70.8496 28.9062 -85.1562 46.7285 -85.1562 C 64.5508 -85.1562 78.6133 -70.8496 78.6621 -53.0273 C 78.7109 -35.2539 64.5508 -20.8496 46.7285 -20.8984 Z"/>
        </g>
        <g id="Thin-M" transform="matrix(1 0 0 1 810.817 1126)">
            <path d="M 71.7773 12.9883 L 71.7773 -27.6367 C 78.3691 -34.3262 82.4707 -43.457 82.4707 -53.5156 C 82.4707 -73.8281 65.8691 -90.4785 45.6055 -90.4785 C 25.293 -90.4785 8.74023 -73.8281 8.74023 -53.5156 C 8.74023 -43.457 12.8418 -34.2285 19.4824 -27.5391 L 19.4824 12.9883 C 19.4824 14.5996 20.4102 15.5762 21.6797 15.5762 C 23.0469 15.5762 23.877 14.7461 24.7559 13.8672 L 42.041 -3.32031 C 43.7012 -4.98047 44.7266 -5.51758 45.6543 -5.51758 C 46.582 -5.51758 47.6074 -4.98047 49.2188 -3.32031 L 66.4551 13.8672 C 67.4316 14.8438 68.3105 15.5762 69.5312 15.5762 C 70.9473 15.5762 71.7773 14.5996 71.7773 12.9883 Z M 45.6055 -20.166 C 27.1973 -20.166 12.4023 -35.1074 12.4023 -53.5156 C 12.4023 -71.9727 27.1973 -86.8652 45.6055 -86.8652 C 64.0137 -86.8652 78.8086 -71.9727 78.8574 -53.5156 C 78.8574 -35.1074 64.0137 -20.166 45.6055 -20.166 Z"/>
        </g>
        <g id="Ultralight-M" transform="matrix(1 0 0 1 514.692 1126)">
            <path d="M 71.3379 12.8906 L 71.3379 -28.8086 C 77.5391 -35.3516 81.2988 -44.1406 81.2988 -53.8086 C 81.2988 -73.7793 64.9902 -90.1367 45.0195 -90.1367 C 25.0488 -90.1367 8.74023 -73.7793 8.74023 -53.8086 C 8.74023 -44.0918 12.5488 -35.3027 18.7988 -28.7598 L 18.7988 12.8906 C 18.7988 14.1113 19.5312 15.0391 20.6055 15.0391 C 21.875 15.0391 22.6074 14.2578 23.3398 13.5254 L 41.0156 -4.10156 C 42.8711 -6.00586 44.0918 -6.64062 45.0684 -6.64062 C 46.0938 -6.64062 47.2168 -6.00586 49.1211 -4.10156 L 66.748 13.5254 C 67.5781 14.3555 68.3105 15.0391 69.4336 15.0391 C 70.6543 15.0391 71.3379 14.1113 71.3379 12.8906 Z M 45.0195 -19.7754 C 26.3184 -19.7754 11.1328 -35.0098 11.1328 -53.8086 C 11.1328 -72.5586 26.3184 -87.7441 45.0195 -87.7441 C 63.7695 -87.7441 78.9062 -72.5586 78.9062 -53.8086 C 78.9062 -35.0098 63.7695 -19.7754 45.0195 -19.7754 Z"/>
        </g>
        <g id="Black-S" transform="matrix(1 0 0 1 2890.72 696)">
            <path d="M 67.2363 3.51562 L 67.2363 -21.0938 C 74.2188 -27.6367 78.5156 -36.9629 78.5156 -47.5098 C 78.5156 -67.6758 62.8418 -83.3984 42.6758 -83.3984 C 22.5098 -83.3984 6.83594 -67.6758 6.83594 -47.5098 C 6.83594 -36.0352 11.9141 -26.0254 19.9707 -19.4824 L 19.9707 3.51562 C 19.9707 8.00781 23.0957 10.2539 26.6602 10.2539 C 28.9062 10.2539 30.4688 9.47266 32.1777 7.76367 L 42.6758 -2.63672 C 42.9199 -2.88086 43.2617 -3.07617 43.6035 -3.07617 C 43.9941 -3.07617 44.2871 -2.88086 44.5312 -2.63672 L 55.127 7.76367 C 56.7871 9.375 58.3496 10.2539 60.5957 10.2539 C 64.1113 10.2539 67.2363 8.00781 67.2363 3.51562 Z M 42.6758 -26.0254 C 30.7129 -26.0254 21.1914 -35.7422 21.2402 -47.5098 C 21.1914 -59.3262 30.7129 -69.043 42.6758 -69.043 C 54.6387 -69.043 64.1602 -59.3262 64.1602 -47.5098 C 64.1602 -35.7422 54.6387 -26.0254 42.6758 -26.0254 Z"/>
        </g>
        <g id="Heavy-S" transform="matrix(1 0 0 1 2595.19 696)">
            <path d="M 64.9902 3.36914 L 64.9902 -22.1191 C 71.875 -28.418 76.123 -37.5488 76.1719 -47.8027 C 76.1719 -67.2363 60.8887 -82.5195 41.5039 -82.5195 C 22.0703 -82.5195 6.83594 -67.2363 6.83594 -47.8027 C 6.83594 -36.8164 11.6699 -27.1973 19.3848 -20.8496 L 19.4336 3.36914 C 19.4336 7.37305 22.1191 9.32617 25.2441 9.32617 C 27.2949 9.32617 28.7598 8.54492 30.3223 6.98242 L 41.2109 -3.80859 C 41.5039 -4.10156 41.8457 -4.29688 42.2363 -4.29688 C 42.5781 -4.29688 42.9199 -4.10156 43.2129 -3.80859 L 54.1992 6.98242 C 55.7129 8.49609 57.1777 9.32617 59.2285 9.32617 C 62.3047 9.32617 64.9902 7.37305 64.9902 3.36914 Z M 41.5039 -25.7324 C 29.1992 -25.7324 19.4824 -35.6445 19.5312 -47.8027 C 19.4824 -59.9609 29.1992 -69.9219 41.5039 -69.9219 C 53.8086 -69.9219 63.5254 -59.9609 63.5254 -47.8027 C 63.5254 -35.6445 53.8086 -25.6836 41.5039 -25.7324 Z"/>
        </g>
        <g id="Bold-S" transform="matrix(1 0 0 1 2299.82 696)">
            <path d="M 62.5 3.17383 L 62.5 -23.291 C 69.2871 -29.3457 73.4863 -38.1836 73.4863 -48.0957 C 73.5352 -66.6992 58.6914 -81.543 40.1855 -81.543 C 21.6309 -81.543 6.83594 -66.6992 6.83594 -48.0957 C 6.83594 -37.7441 11.4746 -28.5156 18.75 -22.4121 L 18.7988 3.17383 C 18.7988 6.68945 20.9961 8.30078 23.6328 8.30078 C 25.4883 8.30078 26.8066 7.51953 28.2227 6.10352 L 39.5508 -5.12695 C 39.9414 -5.46875 40.2832 -5.66406 40.6738 -5.66406 C 41.0156 -5.66406 41.4062 -5.46875 41.748 -5.12695 L 53.125 6.10352 C 54.541 7.4707 55.9082 8.30078 57.666 8.30078 C 60.3027 8.30078 62.5 6.68945 62.5 3.17383 Z M 40.1855 -25.3906 C 27.4902 -25.3906 17.5781 -35.5469 17.627 -48.0957 C 17.5781 -60.6934 27.4902 -70.8984 40.1855 -70.8984 C 52.832 -70.8984 62.793 -60.6934 62.793 -48.0957 C 62.8418 -35.5469 52.832 -25.3418 40.1855 -25.3906 Z"/>
        </g>
        <g id="Semibold-S" transform="matrix(1 0 0 1 2004.01 696)">
            <path d="M 60.791 3.02734 L 60.791 -24.0723 C 67.4805 -29.9805 71.6797 -38.623 71.6797 -48.3398 C 71.7285 -66.3574 57.1777 -80.8594 39.2578 -80.8594 C 21.2891 -80.8594 6.83594 -66.3574 6.83594 -48.3398 C 6.83594 -38.3301 11.2793 -29.3945 18.3594 -23.4863 L 18.3594 3.02734 C 18.3594 6.20117 20.2637 7.61719 22.5586 7.61719 C 24.2188 7.61719 25.4883 6.78711 26.8066 5.51758 L 38.4277 -6.05469 C 38.8184 -6.44531 39.209 -6.5918 39.5996 -6.5918 C 39.9414 -6.5918 40.332 -6.44531 40.7715 -6.05469 L 52.3926 5.51758 C 53.7109 6.78711 54.9805 7.61719 56.6406 7.61719 C 58.9355 7.61719 60.791 6.20117 60.791 3.02734 Z M 39.3066 -25.1465 C 26.3672 -25.1465 16.2598 -35.498 16.2598 -48.3398 C 16.2598 -61.1816 26.3672 -71.5332 39.3066 -71.5332 C 52.1973 -71.5332 62.2559 -61.1816 62.3047 -48.3398 C 62.3535 -35.498 52.1973 -25.0977 39.3066 -25.1465 Z"/>
        </g>
        <g id="Medium-S" transform="matrix(1 0 0 1 1707.98 696)">
            <path d="M 59.5215 2.92969 L 59.5215 -24.6582 C 66.1133 -30.4688 70.2637 -38.9648 70.3125 -48.4863 C 70.3125 -66.1133 56.0547 -80.3223 38.5742 -80.3223 C 21.0449 -80.3223 6.83594 -66.1133 6.83594 -48.4863 C 6.83594 -38.7695 11.1816 -30.0781 18.0176 -24.2676 L 18.0176 2.92969 C 18.0176 5.85938 19.6777 7.08008 21.7285 7.08008 C 23.291 7.08008 24.4629 6.25 25.6836 5.0293 L 37.5488 -6.73828 C 37.9883 -7.17773 38.3789 -7.32422 38.7695 -7.32422 C 39.1602 -7.32422 39.5508 -7.17773 39.9902 -6.73828 L 51.8555 5.0293 C 53.0762 6.29883 54.2969 7.08008 55.8105 7.08008 C 57.9102 7.08008 59.5215 5.85938 59.5215 2.92969 Z M 38.623 -24.9512 C 25.4395 -25 15.2832 -35.4492 15.2832 -48.4863 C 15.2832 -61.5723 25.4395 -72.0703 38.623 -72.0703 C 51.709 -72.0703 61.9141 -61.5723 61.9141 -48.4863 C 61.9629 -35.4492 51.709 -24.9023 38.623 -24.9512 Z"/>
        </g>
        <g id="Regular-S" transform="matrix(1 0 0 1 1412.17 696)">
            <path d="M 57.8125 2.83203 L 57.8125 -25.4395 C 64.3066 -31.1035 68.457 -39.4531 68.5059 -48.6816 C 68.5547 -65.7715 54.541 -79.6387 37.6465 -79.6387 C 20.752 -79.6387 6.83594 -65.7715 6.83594 -48.6816 C 6.83594 -39.4043 11.0352 -31.0059 17.5781 -25.3418 L 17.627 2.83203 C 17.627 5.37109 18.9453 6.39648 20.6543 6.39648 C 22.0215 6.39648 23.1445 5.56641 24.2676 4.44336 L 36.4258 -7.66602 C 36.9141 -8.10547 37.3047 -8.25195 37.6953 -8.25195 C 38.0859 -8.25195 38.4766 -8.10547 38.9648 -7.66602 L 51.123 4.44336 C 52.2949 5.61523 53.418 6.39648 54.7852 6.39648 C 56.543 6.39648 57.8125 5.37109 57.8125 2.83203 Z M 37.6953 -24.707 C 24.3164 -24.7559 13.9648 -35.4004 13.9648 -48.6816 C 13.9648 -62.0605 24.3164 -72.7051 37.6953 -72.7051 C 51.0742 -72.7051 61.377 -62.0605 61.4258 -48.6816 C 61.4746 -35.4004 51.0742 -24.6582 37.6953 -24.707 Z"/>
        </g>
        <g id="Light-S" transform="matrix(1 0 0 1 1116.22 696)">
            <path d="M 57.2266 2.73438 L 57.2266 -26.9043 C 63.1836 -32.373 66.9922 -40.2832 66.9922 -49.0234 C 67.041 -65.6738 53.418 -79.1992 36.9141 -79.1992 C 20.4102 -79.1992 6.83594 -65.6738 6.83594 -49.0234 C 6.83594 -40.2344 10.6445 -32.3242 16.6992 -26.8066 L 16.6992 2.73438 C 16.6992 4.78516 17.7734 5.66406 19.2383 5.66406 C 20.5078 5.66406 21.4355 4.93164 22.4121 4.00391 L 35.1074 -8.64258 C 35.8887 -9.42383 36.4258 -9.66797 36.9629 -9.66797 C 37.4512 -9.66797 38.0371 -9.42383 38.8184 -8.64258 L 51.4648 4.00391 C 52.4902 4.98047 53.4668 5.66406 54.6387 5.66406 C 56.1523 5.66406 57.2266 4.78516 57.2266 2.73438 Z M 36.9629 -24.2188 C 23.1445 -24.2676 12.3047 -35.3027 12.3047 -49.0234 C 12.3047 -62.793 23.1445 -73.877 36.9629 -73.877 C 50.7324 -73.877 61.5234 -62.793 61.5723 -49.0234 C 61.5723 -35.3027 50.7324 -24.1699 36.9629 -24.2188 Z"/>
        </g>
        <g id="Thin-S" transform="matrix(1 0 0 1 820.485 696)">
            <path d="M 56.3965 2.58789 L 56.3965 -28.8574 C 61.7188 -34.1309 64.9902 -41.4551 65.0391 -49.4629 C 65.0391 -65.5273 51.9043 -78.6621 35.9375 -78.6621 C 19.9219 -78.6621 6.83594 -65.5273 6.83594 -49.4629 C 6.83594 -41.4062 10.1562 -34.082 15.4785 -28.7598 L 15.5273 2.58789 C 15.5273 3.95508 16.3086 4.78516 17.3828 4.78516 C 18.457 4.78516 19.1895 4.10156 19.9219 3.36914 L 33.3008 -9.96094 C 34.5215 -11.1328 35.3027 -11.5723 35.9863 -11.5723 C 36.6699 -11.5723 37.4023 -11.1328 38.623 -9.96094 L 51.9531 3.36914 C 52.7344 4.19922 53.4668 4.78516 54.4922 4.78516 C 55.6641 4.78516 56.3965 3.95508 56.3965 2.58789 Z M 35.9375 -23.584 C 21.6309 -23.584 10.1562 -35.1562 10.1562 -49.4629 C 10.1562 -63.8184 21.6309 -75.3418 35.9375 -75.3418 C 50.2441 -75.3418 61.7188 -63.8184 61.7188 -49.4629 C 61.7188 -35.1562 50.2441 -23.5352 35.9375 -23.584 Z"/>
        </g>
        <g id="Ultralight-S" transform="matrix(1 0 0 1 524.286 696)">
            <path d="M 56.0059 2.49023 L 56.0059 -29.8828 C 60.9375 -35.0586 64.0137 -42.041 64.0137 -49.707 C 64.0137 -65.4297 51.1719 -78.3203 35.4004 -78.3203 C 19.6777 -78.3203 6.83594 -65.4297 6.83594 -49.707 C 6.83594 -41.9922 9.91211 -35.0098 14.8926 -29.834 L 14.8926 2.49023 C 14.8926 3.56445 15.5273 4.29688 16.4062 4.29688 C 17.4316 4.29688 18.0176 3.66211 18.6523 3.02734 L 32.373 -10.6445 C 33.7891 -12.0605 34.7168 -12.5 35.4492 -12.5 C 36.2305 -12.5 37.0605 -12.0605 38.5254 -10.6445 L 52.1973 3.02734 C 52.8809 3.75977 53.5156 4.29688 54.3945 4.29688 C 55.4199 4.29688 56.0059 3.56445 56.0059 2.49023 Z M 35.4004 -23.2422 C 20.8496 -23.2422 9.0332 -35.0586 9.0332 -49.707 C 9.0332 -64.3555 20.8496 -76.123 35.4004 -76.123 C 50 -76.123 61.8164 -64.3555 61.8164 -49.707 C 61.8164 -35.0586 50 -23.2422 35.4004 -23.2422 Z"/>
        </g>
    </g>
</svg>
